<svg xmlns="http://www.w3.org/2000/svg" xmlns:xlink="http://www.w3.org/1999/xlink" version="1.1" id="Layer_1" x="0" y="0" width="432.46" height="122.16" viewBox="0 0 432.46 122.16" enable-background="new 0 0 432.455 122.161" xml:space="preserve"><path fill="#512513" d="M422.11 5.32c0 0-0.59 5.93-3.56 9.49 -3.56 4.74-18.38 13.64-23.12 16.6 -4.15 2.96-20.75 8.89-27.86 8.3 -2.82-7.65-9.47-7.64-13.44-6.85 -8.76-11.08-27.57-1.13-27.57-1.13s-14.23 10.67-27.86 12.45c-13.04-2.37-57.5 10.08-66.99 11.26 -7.7 0-39.12 8.89-48.02 9.49 -7.71-0.59-29.05 4.15-37.35 5.93 -5.93-0.59-58.69 1.78-68.17 1.78 -4.74-5.93-27.86-7.11-35.57-7.71 -7.71-2.37-15.41-5.93-23.12-12.45C10.14 42.86 6.53 44.07 5.34 48.14c-0.05-0.36-0.11-0.74-0.16-1.15 -1.05 4.8 0.66 12.61 0.66 12.61 7.71 20.16 11.26 21.94 24.9 34.98 27.27 22.53 93.07 19.56 107.3 18.97 33.2 10.08 115.6-2.96 120.34-5.34 11.26-1.19 49.8-11.26 60.47-16.6 29.05 2.96 41.5-6.52 46.83-14.23 0.16-0.42 0.3-0.87 0.42-1.32 3.26-2.84 5.96-5.84 6.8-8.06 4.15-10.67 29.13-27.93 35.13-31.68 1.88-1.51 3.76-4.45 5.19-7.15 1.04-0.65 1.86-1.16 2.36-1.48 2.96-2.37 5.93-8.3 7.11-11.26 0.47-1.41 2.42-1.71 3.51-4.43 0.37 0.07 0.73 0.17 1.06 0.37 0.07-0.34 0.13-0.71 0.18-1.11C429.22 2.36 422.11 5.32 422.11 5.32z"/><path fill="none" d="M422.11 5.32c0 0-0.59 5.93-3.56 9.49 -3.56 4.74-18.38 13.64-23.12 16.6 -4.15 2.96-20.75 8.89-27.86 8.3 -2.82-7.65-9.47-7.64-13.44-6.85 -8.76-11.08-27.57-1.13-27.57-1.13s-14.23 10.67-27.86 12.45c-13.04-2.37-57.5 10.08-66.99 11.26 -7.7 0-39.12 8.89-48.02 9.49 -7.71-0.59-29.05 4.15-37.35 5.93 -5.93-0.59-58.69 1.78-68.17 1.78 -4.74-5.93-27.86-7.11-35.57-7.71 -7.71-2.37-15.41-5.93-23.12-12.45C10.14 42.86 6.53 44.07 5.34 48.14c-0.05-0.36-0.11-0.74-0.16-1.15 -1.05 4.8 0.66 12.61 0.66 12.61 7.71 20.16 11.26 21.94 24.9 34.98 27.27 22.53 93.07 19.56 107.3 18.97 33.2 10.08 115.6-2.96 120.34-5.34 11.26-1.19 49.8-11.26 60.47-16.6 29.05 2.96 41.5-6.52 46.83-14.23 0.16-0.42 0.3-0.87 0.42-1.32 3.26-2.84 5.96-5.84 6.8-8.06 4.15-10.67 29.13-27.93 35.13-31.68 1.88-1.51 3.76-4.45 5.19-7.15 1.04-0.65 1.86-1.16 2.36-1.48 2.96-2.37 5.93-8.3 7.11-11.26 0.47-1.41 2.42-1.71 3.51-4.43 0.37 0.07 0.73 0.17 1.06 0.37 0.07-0.34 0.13-0.71 0.18-1.11C429.22 2.36 422.11 5.32 422.11 5.32z"/><path fill="#512513" d="M417.25 5.32c0.22-1.92-0.22 0.99-0.22 1.02 -0.35 1.75-0.97 3.33-1.85 4.88 -1.06 1.87-3.27 3.38-4.94 4.65 -4.59 3.49-9.53 6.54-14.43 9.58 -8.05 5-18.55 9.85-28.24 9.39 1.4 0.8 2.8 1.6 4.19 2.4 -3.37-7.94-10.87-10.51-18.93-9.08 1.58 0.42 3.15 0.83 4.72 1.25 -6.69-7.72-17.15-7.61-26.22-4.84 -5.52 1.69-9.45 4.67-14.36 7.55 -5.19 3.05-10.68 5.42-16.54 6.82 -2.05 0.49-6.43-0.01-9.96 0.24 -9.38 0.67-18.72 2.65-27.9 4.59 -8.74 1.85-17.42 3.97-26.15 5.84 -6.15 1.32-11.59 1.68-18.43 3.13 -9.59 2.04-19.09 4.5-28.71 6.42 -8.1 1.61-16.48 1.57-24.68 3.02 -7.19 1.27-14.8 3.74-21.37 3.71 -6.91-0.04-13.83 0.25-20.73 0.46 -14.77 0.47-29.57 1.37-44.35 1.41 1.15 0.48 2.29 0.95 3.43 1.42 -4.5-4.98-12.56-6.12-18.82-7.1 -7.06-1.11-15.05-0.52-21.79-2.8 -5.28-1.79-10.15-4.49-14.73-7.64 -4.24-2.92-7.45-7-11.89-9.67C8.76 38.6 2.72 40.66 0.66 46.85c3.12 0 6.24 0 9.36 0 -0.05-0.38-0.11-0.77-0.16-1.15 -0.66-4.72-8.58-4.59-9.36 0 -3.22 18.96 9.77 36.22 22.72 48.44 14.89 14.04 34.32 19.25 54.18 22.06 17.83 2.52 35.9 3 53.88 2.46 1.78-0.05 4.81-0.62 6.27-0.19 3.97 1.17 8.1 1.82 12.2 2.36 9.37 1.22 18.83 1.45 28.28 1.32 19.63-0.26 39.26-2.25 58.69-4.98 6.25-0.88 12.5-1.84 18.68-3.13 1.34-0.28 2.71-0.56 4-1.02 1.92-0.69 1.76-0.26-0.42-0.01 0.87-0.1 1.73-0.23 2.59-0.35 1.93-0.27 3.85-0.65 5.76-1.03 17.84-3.52 36.85-7.89 53.42-15.55 -1.32 0.61 3.71 0.83 3.58 0.82 1.69 0.1 3.38 0.12 5.07 0.13 3 0.02 5.99-0.19 8.97-0.52 5.17-0.57 10.23-1.71 15.04-3.71 6.68-2.77 12.29-7.04 16.48-12.95 2.4-3.38 5.82-6.08 7.52-10.08 1.25-2.94 3.57-5.37 5.73-7.65 5.57-5.86 12.09-10.88 18.62-15.62 5.8-4.21 11.12-7.14 14.92-13.49 0.82-1.36 3-2.4 4.12-3.66 1.57-1.76 2.79-3.84 3.95-5.89 0.73-1.29 1.29-3.73 2.28-4.75 1.33-1.37 2.49-2.5 3.39-4.24 -1.83 0.74-3.65 1.49-5.48 2.23 0.35 0.12 0.71 0.25 1.06 0.37 2.3 0.8 5.58-0.89 5.97-3.39 0.67-4.2 1.43-9.95-3.07-12.46 -2.43-1.35-5.45-1.58-8.06-0.55 -5.75 2.27-3.25 11.66 2.58 9.36 0.42-0.17 0.86-0.27 1.3-0.37 -2.23 0.48-1.5-2.41-2.12 1.44 1.99-1.13 3.98-2.26 5.97-3.39 -0.35-0.12-0.71-0.24-1.06-0.37 -1.96-0.68-4.54 0.4-5.48 2.23 -0.89 1.73-2.55 2.7-3.5 4.43 -1.29 2.34-2.26 4.82-3.67 7.13 -1.49 2.43-4.51 3.25-5.8 5.61 -1.3 2.37-2.55 4.81-4.86 6.31 -7.59 4.93-14.86 10.45-21.71 16.36 -3.52 3.04-6.88 6.29-9.8 9.92 -3.21 3.99-4.9 8.48-8.64 12.09 -2.45 2.37-3.75 5.32-6.37 7.68 -2.78 2.51-6.3 4.23-9.8 5.48 -4.92 1.76-10.12 2.43-15.32 2.69 -6.07 0.3-12.33-1.48-17.95 1 -8.19 3.62-17.2 5.84-25.81 8.2 -9.09 2.49-18.27 4.81-27.55 6.47 -1.32 0.24-2.86 0.26-4.14 0.61 -3.11 0.86 1.06-0.24-1.19 0.41 -1.9 0.55-3.87 0.9-5.82 1.28 -16.4 3.16-33.12 4.94-49.76 6.18 -18.64 1.39-38.42 2.58-56.82-1.44 -6.07-1.32-11.5-0.99-17.72-0.88 -8.72 0.17-17.45 0.02-26.17-0.45 -19.69-1.06-41.02-3.47-58.62-13C32.87 91.22 24.91 83.59 19.41 76.16 13.96 68.8 8.25 57.76 9.86 48.27c-3.12 0-6.24 0-9.36 0 0.05 0.39 0.11 0.77 0.16 1.15 0.72 5.14 8 4.09 9.36 0 0.14-0.43-2.31 0.3-0.95 0.71 2.12 0.64 4.14 3.02 5.67 4.48 5.31 5.04 11.48 8.94 18.17 11.89 4.56 2.01 8.76 3.22 13.69 3.58 4.95 0.36 9.9 0.81 14.81 1.58 4.05 0.64 8.44 1.38 12.08 3.37 1.67 0.91 2.45 2.48 4.67 2.47 1.14 0 2.28-0.03 3.42-0.05 7.66-0.17 15.31-0.48 22.96-0.75 9.07-0.32 18.13-0.64 27.2-0.88 5.32-0.14 11.46 0.68 16.67-0.44 9.87-2.12 19.81-4.44 29.87-5.43 7.97-0.79 15.44-1.7 23.31-3.49 8.03-1.82 16.02-3.81 24.1-5.36 4.97-0.95 9.96-1.35 14.92-2.44 15.58-3.4 31.13-7.66 47.01-9.47 2.83-0.32 5.68-0.51 8.53-0.41 4.25 0.14 8.49-0.69 12.84-2.2 7.07-2.45 14-6.19 20.01-10.65 3.87-2.87 10.62-3.66 15.19-3.35 4.68 0.32 6.48 5.81 11.22 4.97 4.09-0.73 6.37 0.88 7.96 4.62 0.67 1.57 2.64 2.33 4.19 2.4 11.75 0.56 24.27-5.2 34.02-11.26 11.23-6.97 23.72-13.6 25.38-27.98C427.68-0.89 417.96-0.82 417.25 5.32z"/><path fill="#006837" d="M374.13 66.85c4.09-10.69 28.97-28.1 34.95-31.88 2.95-2.39 5.88-8.33 7.05-11.31 0.54-1.65 3.11-1.79 3.94-6.02 -1.67-1-4.2 0.04-4.2 0.04s-0.56 5.83-3.51 9.35c-3.54 4.69-18.35 13.52-23.09 16.46 -4.14 2.94-20.76 8.87-27.89 8.32 -3.09-8.09-10.58-7.41-14.38-6.46 7.07 14.03 9.06 23.04 9.42 29.05 0.64 3.1 0.86 5.64 0.88 7.75C363.38 78.9 372.48 71.31 374.13 66.85z"/><path fill="#D9E021" d="M369.46 45.09c7.14 0.54 23.75-5.39 27.9-8.33 4.74-2.94 19.55-11.77 23.09-16.46 2.95-3.52 3.51-9.35 3.51-9.35s2.53-1.05 4.2-0.04c0.07-0.34 0.13-0.71 0.17-1.11 1.73-8.9-5.37-5.9-5.37-5.9s-0.56 5.93-3.5 9.51c-3.53 4.76-18.3 13.74-23.02 16.73 -4.13 2.99-20.7 9.01-27.81 8.46 -4.21-11.24-16.63-5.83-16.63-5.83 1.13 2.05 2.15 3.99 3.09 5.86C358.88 37.67 366.37 37 369.46 45.09z"/><path fill="#8CC63F" d="M374.65 55.59c5.89-6.56 37.2-26.3 41.92-29.29 2.95-2.39 5.88-8.33 7.05-11.3 0.54-1.65 3.11-1.79 3.94-6.02 -1.68-1-4.2 0.04-4.2 0.04s-0.56 5.83-3.51 9.35c-3.54 4.69-18.35 13.52-23.09 16.46 -4.14 2.94-20.76 8.87-27.89 8.32 -3.09-8.09-10.58-7.41-14.38-6.46 7.07 14.04 9.06 23.04 9.42 29.05 0.64 3.1-0.44 3.82-0.41 5.93C369.59 68.41 373.01 60.04 374.65 55.59z"/><path fill="#891A1A" d="M366.91 67.64c-5.29 7.74-17.68 17.3-46.75 14.5 -10.64 5.4-49.11 15.7-60.37 16.95 -4.73 2.4-87.05 15.92-120.31 6.03 -14.22 0.67-80.01 4.02-107.41-18.35C18.36 73.81 14.8 72.05 6.97 51.94c0 0-0.38-1.69-0.69-3.97 -1.03 4.8 0.74 12.61 0.74 12.61 7.82 20.11 11.39 21.87 25.1 34.83 27.4 22.37 93.18 19.02 107.41 18.35 33.26 9.89 115.58-3.63 120.31-6.03 11.26-1.25 49.73-11.55 60.37-16.95 29.07 2.8 41.46-6.76 46.75-14.5 1.31-3.63 1.57-8.29 1.03-13.36C367.78 64.62 367.43 66.21 366.91 67.64z"/><path fill="#C1272D" d="M32.08 88.55c27.4 22.37 93.18 19.02 107.41 18.35 33.26 9.89 115.58-3.63 120.31-6.03 11.26-1.25 49.73-11.55 60.37-16.95 29.07 2.8 41.46-6.76 46.75-14.5 0.52-1.43 0.87-3.02 1.08-4.73 -1.14-10.7-5.87-23.21-11.95-31.63 -8.38-12.99-28.47-2.21-28.47-2.21s-14.16 10.75-27.79 12.61c-13.06-2.3-57.44 10.41-66.92 11.65 -7.71 0.05-39.08 9.12-47.96 9.76 -7.71-0.55-29.02 4.32-37.31 6.14 -5.93-0.56-58.68 2.12-68.16 2.17 -4.78-5.9-27.9-6.95-35.61-7.5 -7.72-2.33-15.45-5.84-23.19-12.31C10.75 43.34 7.27 45.19 6.3 49.74c0.31 2.29 0.69 3.97 0.69 3.97C14.81 73.83 18.37 75.59 32.08 88.55z"/><path fill="#F15A24" d="M29.12 70.04c39.24 19.34 116.59 10.22 129.29 9.92 29.66 3.56 71.58-11.39 75.81-12.29 10.05-0.5 36.68-6.54 46.19-8.57 29.62-3.73 40.25-7.46 45-10.34 5.33-1.81 21.11-6.6 21.3-7.24 -0.99-3.96 7.74-4.03 2.33-7.13 -7.43-4.79-44.39 13.3-44.39 13.3s-9.75 2.36-21.91 3.09c-11.65-0.81-59.03 14.13-67.5 14.62 -6.88 0.04-38.26 7.12-46.2 7.38 -6.88-0.18-34.08 2.5-41.48 3.2 -5.94-1.74-41.91 2.02-50.38 2.07 -4.24-2.17-16.05-7.61-36.21-8.68 -6.88-0.84-7.97-4.65-14.86-7.03 -8.77-3.69-11.61-9.91-12.5-8.23 0.27 0.85 1.81 4.73 1.81 4.73C22.34 66.27 16.92 65.28 29.12 70.04z"/></svg>