<svg xmlns="http://www.w3.org/2000/svg" xmlns:xlink="http://www.w3.org/1999/xlink" version="1.1" id="Layer_1" x="0" y="0" width="491.93" height="163.62" viewBox="0 0 491.93 163.62" enable-background="new 0 0 491.929 163.624" xml:space="preserve"><path fill="#512513" d="M446.74 5.68c0 0-0.63 6.27-3.76 10.04 -3.76 5.02-19.45 14.43-24.47 17.57 -4.39 3.14-21.96 9.41-29.49 8.78 -2.98-8.1-10.02-8.09-14.23-7.25 -9.27-11.73-29.18-1.2-29.18-1.2s-15.06 11.29-29.49 13.18c-13.8-2.51-60.86 10.67-70.9 11.92 -8.16 0-41.41 9.41-50.82 10.04 -8.16-0.63-30.74 4.39-39.53 6.27 -6.27-0.63-62.11 1.88-72.15 1.88 -5.02-6.27-29.49-7.53-37.65-8.16 -8.16-2.51-16.31-6.27-24.47-13.18 -9.89-10.18-13.71-8.9-14.96-4.59 -0.06-0.39-0.12-0.79-0.17-1.22C4.36 54.84 6.17 63.11 6.17 63.11c8.16 21.33 11.92 23.22 26.35 37.02 28.86 23.84 98.51 20.71 113.56 20.08 35.14 10.67 122.35-3.14 127.37-5.65 11.92-1.26 52.7-11.92 64-17.57 30.75 3.14 43.92-6.9 49.57-15.06 0.17-0.45 0.31-0.92 0.45-1.4 3.45-3.01 6.31-6.18 7.19-8.53 4.39-11.29 30.83-29.56 37.18-33.53 1.99-1.59 3.99-4.71 5.5-7.57 1.1-0.69 1.97-1.23 2.5-1.56 3.14-2.51 6.27-8.78 7.53-11.92 0.5-1.49 2.56-1.81 3.71-4.68 0.39 0.07 0.78 0.18 1.12 0.39 0.07-0.36 0.14-0.75 0.19-1.18C454.27 2.54 446.74 5.68 446.74 5.68z"/><path fill="none" d="M446.74 5.68c0 0-0.63 6.27-3.76 10.04 -3.76 5.02-19.45 14.43-24.47 17.57 -4.39 3.14-21.96 9.41-29.49 8.78 -2.98-8.1-10.02-8.09-14.23-7.25 -9.27-11.73-29.18-1.2-29.18-1.2s-15.06 11.29-29.49 13.18c-13.8-2.51-60.86 10.67-70.9 11.92 -8.16 0-41.41 9.41-50.82 10.04 -8.16-0.63-30.74 4.39-39.53 6.27 -6.27-0.63-62.11 1.88-72.15 1.88 -5.02-6.27-29.49-7.53-37.65-8.16 -8.16-2.51-16.31-6.27-24.47-13.18 -9.89-10.18-13.71-8.9-14.96-4.59 -0.06-0.39-0.12-0.79-0.17-1.22C4.36 54.84 6.17 63.11 6.17 63.11c8.16 21.33 11.92 23.22 26.35 37.02 28.86 23.84 98.51 20.71 113.56 20.08 35.14 10.67 122.35-3.14 127.37-5.65 11.92-1.26 52.7-11.92 64-17.57 30.75 3.14 43.92-6.9 49.57-15.06 0.17-0.45 0.31-0.92 0.45-1.4 3.45-3.01 6.31-6.18 7.19-8.53 4.39-11.29 30.83-29.56 37.18-33.53 1.99-1.59 3.99-4.71 5.5-7.57 1.1-0.69 1.97-1.23 2.5-1.56 3.14-2.51 6.27-8.78 7.53-11.92 0.5-1.49 2.56-1.81 3.71-4.68 0.39 0.07 0.78 0.18 1.12 0.39 0.07-0.36 0.14-0.75 0.19-1.18C454.27 2.54 446.74 5.68 446.74 5.68z"/><path fill="#512513" d="M441.6 5.68c0.24-2.13-0.12 0.5-0.15 0.7 -0.29 1.55-0.76 3.07-1.43 4.5 -1.11 2.37-3.39 4.04-5.38 5.63 -4.71 3.78-10.02 6.93-15.14 10.12 -8.72 5.43-19.95 10.82-30.48 10.3 1.65 1.26 3.3 2.52 4.96 3.77 -3.77-8.96-11.09-12.53-20.55-10.84 1.67 0.44 3.33 0.88 5 1.32 -10.77-12.49-28.46-6.2-40.13 1.18 -4.61 2.92-9.5 5.42-14.63 7.29 -1.45 0.53-2.93 0.93-4.42 1.33 -0.14 0.04-4.45 0.43-2.33 0.77 -1.84-0.3-3.68-0.41-5.54-0.4 -8.79 0.02-17.71 1.89-26.3 3.57 -9.49 1.86-18.9 4.07-28.32 6.21 -3.24 0.74-6.49 1.47-9.75 2.11 -2.46 0.48-4.18 0.46-7.67 0.99 -9.3 1.41-18.47 3.88-27.63 5.99 -7.65 1.75-14.85 2.93-22.61 3.53 -11.42 0.89-22.76 3.57-33.93 5.98 -1.07 0.23-4.26 0.06-6.39 0.08 -4.04 0.04-8.08 0.15-12.12 0.27 -17.96 0.51-35.94 1.65-53.91 1.7 1.21 0.5 2.42 1 3.63 1.51 -4.74-5.27-13.31-6.48-19.91-7.52 -7.39-1.16-15.83-0.53-22.88-2.9 -5.2-1.75-10.03-4.33-14.6-7.34 -4.86-3.2-8.52-7.78-13.46-10.88 -5.98-3.75-12.58-1.74-14.8 4.98 3.3 0 6.61 0 9.91 0 -0.06-0.41-0.11-0.81-0.17-1.22 -0.7-4.99-9.08-4.86-9.91 0 -3.24 19.06 9.28 37.28 22.42 49.73 7.33 6.95 14.61 12.28 24.01 16.12 9.42 3.85 19.31 6.22 29.33 7.91 18.77 3.18 37.92 3.93 56.92 3.6 5.97-0.1 11.12-0.51 16.59 0.7 8.66 1.92 17.65 2.51 26.49 2.78 20.19 0.61 40.49-1.07 60.52-3.42 12.25-1.44 25.5-2.37 37.35-6.04 0.19-0.06 0.37-0.12 0.55-0.2 3.96-1.59-2.58 0.31-0.04-0.02 1.69-0.22 3.36-0.48 5.04-0.77 4.36-0.77 8.68-1.75 12.98-2.76 10.03-2.35 19.98-5.06 29.82-8.1 3.92-1.21 7.81-2.51 11.64-3.96 1.61-0.61 3.2-1.29 4.77-1.99 0.89-0.4-0.08 0.3 2.23 0.48 2.28 0.18 4.56 0.24 6.85 0.27 10.4 0.14 20.99-1.63 30.28-6.44 7.32-3.79 10.96-9.93 16.41-15.51 3.26-3.33 4.56-7.55 7.37-11.13 3.37-4.3 7.56-7.98 11.7-11.51 3.92-3.34 8.02-6.44 12.2-9.44 3.05-2.2 6.78-4.04 9.55-6.58 2.25-2.07 3.94-4.56 5.51-7.17 0.54-0.9 1.72-1.27 2.49-1.97 1.25-1.13 2.36-2.4 3.33-3.79 1.82-2.6 3.31-5.34 4.61-8.24 0.88-1.97 2.95-3.4 4.1-5.61 -1.93 0.79-3.87 1.57-5.8 2.36 0.38 0.13 0.75 0.26 1.12 0.39 2.44 0.84 5.9-0.94 6.32-3.59 0.82-5.12 1.27-10.13-3.54-13.36 -2.23-1.5-5.83-1.36-8.24-0.41 -6.09 2.41-3.44 12.35 2.73 9.91 0.3-0.12 1.84-0.4 0.85-0.31 1.16-0.11-0.78 0.32-1.43-1.43 0.28 0.76-0.16 2.11-0.28 2.87 2.11-1.2 4.21-2.39 6.32-3.59 -0.37-0.13-0.75-0.26-1.12-0.39 -2.08-0.72-4.8 0.43-5.8 2.36 -0.94 1.83-2.7 2.86-3.71 4.68 -1.23 2.22-2.13 4.61-3.43 6.81 -1.61 2.75-3.67 3.51-5.8 5.63 -2.13 2.13-2.66 5.62-5.33 7.32 -7.3 4.67-14.27 9.95-20.94 15.47 -6.9 5.7-13.84 12.03-17.62 20.27 -1.2 2.61-3.89 4.71-5.97 6.57 -1.19 1.07-1.42 2.76-2.42 3.94 -2.14 2.52-4.69 4.46-7.53 6.12 -9.2 5.36-20.62 5.82-30.97 5.33 -3.07-0.14-5.74-0.85-8.6 0.54 -1.21 0.59-2.47 1.06-3.72 1.54 -4.29 1.63-8.69 3.01-13.08 4.35 -9.83 3-19.79 5.61-29.81 7.93 -3.83 0.89-7.67 1.7-11.54 2.38 -1.49 0.26-2.63 0.19-4.07 0.59 -3 0.83 1.11-0.23-1.46 0.48 -12.71 3.52-26.44 4.66-39.5 6.09 -20.07 2.2-40.41 3.59-60.6 2.55 -4.14-0.21-8.29-0.56-12.39-1.16 -3.75-0.55-8.32-2.65-12.05-2.5 -5.79 0.24-11.59 0.42-17.39 0.47 -19.51 0.17-39.21-0.87-58.33-4.93 -7.7-1.64-15.4-3.84-22.57-7.12 -7.28-3.32-12.71-8-18.46-13.45 -4.93-4.68-9.26-9.41-12.53-15.4 -3.8-6.95-7.76-15.32-6.37-23.5 -3.3 0-6.61 0-9.91 0 0.06 0.41 0.11 0.81 0.17 1.22 0.76 5.44 8.48 4.34 9.91 0 0.43-1.3-0.36 0.86-1.41 0.62 1.95 0.46 3.82 2.48 5.23 3.75 5.58 5.01 11.2 9.3 17.98 12.61 4.69 2.29 9.66 4.36 14.89 4.73 4.71 0.34 9.4 0.73 14.09 1.29 4.6 0.55 9.2 1.42 13.61 2.85 3.4 1.1 5.22 3.89 8.98 3.85 6.84-0.08 13.69-0.38 20.53-0.62 16.08-0.56 32.22-1.55 48.31-1.34 7.94 0.1 16.29-2.87 24.1-4.29 8.23-1.5 16.54-1.43 24.72-2.92 9.13-1.66 18.15-4.01 27.2-6.05 6.57-1.48 13.11-2.3 19.71-3.44 16.67-2.89 32.95-7.7 49.68-10.42 7.57-1.23 15.3-0.36 22.27-1.71 9.6-1.86 18.96-7.03 26.91-12.59 3.88-2.71 9.4-4.02 14.24-4.23 2.06-0.09 4.16 0.2 6.04 1.08 2.25 1.05 3.33 3.61 5.76 4.28 4.24 1.17 8.27-1.96 10.64 3.66 0.94 2.23 2.42 3.65 4.96 3.77 12.69 0.62 26.05-5.72 36.56-12.26 6.21-3.86 12.39-7.85 18.01-12.55 5.09-4.26 7.56-10.24 8.3-16.72C452.63-0.9 442.34-0.83 441.6 5.68z"/><path fill="#006837" d="M395.96 70.8c4.33-11.32 30.66-29.74 36.99-33.74 3.12-2.53 6.22-8.82 7.46-11.97 0.57-1.74 3.29-1.9 4.17-6.38 -1.77-1.06-4.45 0.05-4.45 0.05s-0.59 6.17-3.72 9.9c-3.75 4.96-19.42 14.31-24.44 17.42 -4.39 3.11-21.97 9.38-29.52 8.81 -3.27-8.56-11.2-7.84-15.22-6.84 7.49 14.85 9.59 24.39 9.97 30.74 0.68 3.28 0.91 5.97 0.94 8.2C384.59 83.55 394.22 75.51 395.96 70.8z"/><path fill="#D9E021" d="M391.03 47.76c7.56 0.57 25.14-5.7 29.52-8.81 5.01-3.11 20.69-12.46 24.44-17.42 3.13-3.72 3.72-9.9 3.72-9.9s2.68-1.11 4.45-0.05c0.07-0.36 0.14-0.75 0.18-1.18 1.83-9.42-5.68-6.24-5.68-6.24s-0.59 6.28-3.71 10.06c-3.73 5.04-19.37 14.54-24.37 17.71 -4.37 3.16-21.9 9.54-29.44 8.96 -4.46-11.89-17.6-6.17-17.6-6.17 1.19 2.17 2.27 4.23 3.27 6.2C379.83 39.92 387.76 39.2 391.03 47.76z"/><path fill="#8CC63F" d="M396.52 58.87c6.24-6.94 39.37-27.83 44.37-31 3.12-2.53 6.22-8.82 7.46-11.96 0.57-1.74 3.29-1.9 4.17-6.38 -1.77-1.06-4.45 0.05-4.45 0.05s-0.59 6.18-3.72 9.9c-3.74 4.96-19.42 14.31-24.44 17.42 -4.39 3.11-21.97 9.38-29.52 8.81 -3.27-8.56-11.2-7.84-15.22-6.84 7.49 14.85 9.59 24.39 9.97 30.74 0.68 3.28-0.46 4.05-0.44 6.28C391.15 72.44 394.78 63.59 396.52 58.87z"/><path fill="#891A1A" d="M388.32 71.63c-5.6 8.19-18.72 18.31-49.48 15.35 -11.26 5.71-51.98 16.61-63.89 17.94 -5.01 2.54-92.14 16.85-127.33 6.38 -15.05 0.72-84.68 4.25-113.68-19.42C19.43 78.16 15.65 76.3 7.37 55.01c0 0-0.4-1.79-0.73-4.21 -1.09 5.08 0.78 13.34 0.78 13.34 8.28 21.29 12.06 23.15 26.57 36.87 29 23.67 98.63 20.14 113.68 19.42 35.2 10.46 122.33-3.84 127.33-6.38 11.91-1.32 52.63-12.23 63.9-17.94 30.76 2.96 43.88-7.16 49.48-15.35 1.39-3.84 1.66-8.78 1.09-14.14C389.24 68.44 388.87 70.12 388.32 71.63z"/><path fill="#C1272D" d="M33.95 93.76c29 23.68 98.63 20.14 113.68 19.42 35.2 10.46 122.33-3.85 127.33-6.38 11.91-1.32 52.64-12.23 63.9-17.94 30.76 2.96 43.88-7.15 49.48-15.34 0.55-1.51 0.92-3.2 1.14-5.01 -1.21-11.33-6.21-24.57-12.65-33.47 -8.86-13.75-30.13-2.34-30.13-2.34s-14.99 11.38-29.41 13.35c-13.82-2.43-60.8 11.02-70.83 12.33 -8.16 0.05-41.35 9.65-50.76 10.33 -8.16-0.58-30.72 4.57-39.49 6.5 -6.28-0.59-62.1 2.24-72.14 2.3 -5.06-6.24-29.53-7.36-37.69-7.94 -8.17-2.46-16.35-6.18-24.54-13.03C11.37 45.91 7.69 47.87 6.66 52.69c0.32 2.42 0.73 4.21 0.73 4.21C15.66 78.18 19.44 80.04 33.95 93.76z"/><path fill="#F15A24" d="M30.81 74.16C72.34 94.63 154.21 84.98 167.65 84.67c31.39 3.77 75.76-12.06 80.24-13.01 10.64-0.53 38.82-6.92 48.89-9.07 31.35-3.94 42.6-7.89 47.62-10.94 5.64-1.91 22.34-6.99 22.54-7.66 -1.04-4.19 8.19-4.26 2.47-7.54 -7.87-5.07-46.98 14.08-46.98 14.08s-10.32 2.5-23.19 3.27c-12.33-0.86-62.48 14.96-71.44 15.47 -7.28 0.04-40.49 7.53-48.9 7.81 -7.28-0.19-36.06 2.65-43.9 3.39 -6.28-1.85-44.36 2.14-53.32 2.19 -4.49-2.3-16.99-8.06-38.33-9.19 -7.29-0.89-8.43-4.92-15.73-7.44 -9.29-3.9-12.29-10.49-13.23-8.71 0.28 0.9 1.91 5.01 1.91 5.01C23.64 70.18 17.9 69.13 30.81 74.16z"/><path fill="#512513" d="M481 39.93c0 0-0.63 6.27-3.76 10.04 -3.76 5.02-19.45 14.43-24.47 17.57 -4.39 3.14-21.96 9.41-29.49 8.78 -2.98-8.1-10.02-8.09-14.23-7.25 -9.27-11.73-29.18-1.19-29.18-1.19s-15.06 11.29-29.49 13.18c-13.8-2.51-60.86 10.67-70.9 11.92 -8.16 0-41.41 9.41-50.82 10.04 -8.16-0.63-30.74 4.39-39.53 6.27 -6.27-0.63-62.11 1.88-72.15 1.88 -5.02-6.27-29.49-7.53-37.65-8.16 -8.16-2.51-16.31-6.27-24.47-13.18C44.98 79.66 41.16 80.94 39.9 85.24c-0.06-0.39-0.12-0.79-0.17-1.22 -1.12 5.08 0.7 13.35 0.7 13.35 8.16 21.33 11.92 23.22 26.35 37.02 28.86 23.84 98.51 20.71 113.56 20.08 35.14 10.67 122.35-3.14 127.37-5.65 11.92-1.25 52.7-11.92 64-17.57 30.75 3.14 43.92-6.9 49.57-15.06 0.17-0.45 0.31-0.92 0.45-1.4 3.45-3.01 6.31-6.18 7.19-8.53 4.39-11.29 30.83-29.56 37.18-33.53 1.99-1.59 3.99-4.71 5.5-7.57 1.1-0.69 1.97-1.23 2.5-1.56 3.14-2.51 6.27-8.78 7.53-11.92 0.5-1.49 2.56-1.81 3.71-4.68 0.39 0.07 0.78 0.18 1.12 0.39 0.07-0.36 0.14-0.75 0.19-1.18C488.53 36.8 481 39.93 481 39.93z"/><path fill="none" d="M481 39.93c0 0-0.63 6.27-3.76 10.04 -3.76 5.02-19.45 14.43-24.47 17.57 -4.39 3.14-21.96 9.41-29.49 8.78 -2.98-8.1-10.02-8.09-14.23-7.25 -9.27-11.73-29.18-1.19-29.18-1.19s-15.06 11.29-29.49 13.18c-13.8-2.51-60.86 10.67-70.9 11.92 -8.16 0-41.41 9.41-50.82 10.04 -8.16-0.63-30.74 4.39-39.53 6.27 -6.27-0.63-62.11 1.88-72.15 1.88 -5.02-6.27-29.49-7.53-37.65-8.16 -8.16-2.51-16.31-6.27-24.47-13.18C44.98 79.66 41.16 80.94 39.9 85.24c-0.06-0.39-0.12-0.79-0.17-1.22 -1.12 5.08 0.7 13.35 0.7 13.35 8.16 21.33 11.92 23.22 26.35 37.02 28.86 23.84 98.51 20.71 113.56 20.08 35.14 10.67 122.35-3.14 127.37-5.65 11.92-1.25 52.7-11.92 64-17.57 30.75 3.14 43.92-6.9 49.57-15.06 0.17-0.45 0.31-0.92 0.45-1.4 3.45-3.01 6.31-6.18 7.19-8.53 4.39-11.29 30.83-29.56 37.18-33.53 1.99-1.59 3.99-4.71 5.5-7.57 1.1-0.69 1.97-1.23 2.5-1.56 3.14-2.51 6.27-8.78 7.53-11.92 0.5-1.49 2.56-1.81 3.71-4.68 0.39 0.07 0.78 0.18 1.12 0.39 0.07-0.36 0.14-0.75 0.19-1.18C488.53 36.8 481 39.93 481 39.93z"/><path fill="#512513" d="M475.86 39.93c0.24-2.13-0.12 0.5-0.15 0.7 -0.29 1.55-0.76 3.07-1.43 4.5 -1.11 2.37-3.39 4.04-5.38 5.63 -4.71 3.78-10.02 6.93-15.14 10.12 -8.72 5.43-19.95 10.82-30.48 10.3 1.65 1.26 3.3 2.52 4.96 3.77 -3.77-8.96-11.09-12.53-20.55-10.84 1.67 0.44 3.33 0.88 5 1.32 -10.77-12.49-28.46-6.2-40.13 1.18 -4.61 2.92-9.5 5.42-14.63 7.29 -1.45 0.53-2.93 0.93-4.42 1.33 -0.14 0.04-4.45 0.43-2.33 0.77 -1.84-0.3-3.68-0.41-5.54-0.4 -8.79 0.02-17.71 1.89-26.3 3.57 -9.49 1.86-18.9 4.07-28.32 6.21 -3.24 0.74-6.49 1.47-9.75 2.11 -2.46 0.48-4.18 0.46-7.67 0.99 -9.3 1.41-18.47 3.89-27.63 5.99 -7.65 1.76-14.85 2.93-22.61 3.53 -11.42 0.89-22.76 3.57-33.93 5.98 -1.07 0.23-4.26 0.06-6.39 0.08 -4.04 0.04-8.08 0.15-12.12 0.27 -17.96 0.51-35.94 1.65-53.91 1.7 1.21 0.5 2.42 1 3.63 1.51 -4.74-5.27-13.31-6.48-19.91-7.52 -7.39-1.16-15.83-0.53-22.88-2.9 -5.2-1.75-10.03-4.33-14.6-7.34 -4.86-3.2-8.52-7.78-13.46-10.88 -5.98-3.75-12.58-1.74-14.8 4.98 3.3 0 6.61 0 9.91 0 -0.06-0.41-0.11-0.81-0.17-1.22 -0.7-4.99-9.08-4.86-9.91 0 -3.24 19.06 9.28 37.28 22.42 49.73 7.33 6.95 14.61 12.28 24.01 16.12 9.42 3.85 19.31 6.22 29.32 7.91 18.77 3.18 37.92 3.93 56.92 3.6 5.97-0.1 11.12-0.51 16.59 0.7 8.66 1.92 17.65 2.51 26.49 2.78 20.19 0.61 40.49-1.07 60.52-3.42 12.25-1.44 25.5-2.37 37.35-6.05 0.19-0.06 0.37-0.12 0.55-0.2 3.96-1.6-2.58 0.31-0.04-0.02 1.69-0.21 3.36-0.48 5.04-0.77 4.36-0.77 8.68-1.75 12.98-2.76 10.03-2.35 19.98-5.06 29.82-8.1 3.92-1.21 7.81-2.51 11.64-3.96 1.61-0.61 3.2-1.29 4.77-1.99 0.89-0.4-0.08 0.3 2.23 0.48 2.28 0.18 4.56 0.24 6.85 0.27 10.4 0.14 20.99-1.63 30.28-6.44 7.32-3.79 10.96-9.93 16.41-15.51 3.26-3.33 4.56-7.55 7.37-11.13 3.37-4.3 7.56-7.98 11.7-11.51 3.92-3.34 8.02-6.44 12.2-9.44 3.05-2.2 6.78-4.04 9.55-6.58 2.25-2.07 3.94-4.56 5.51-7.17 0.54-0.9 1.72-1.27 2.49-1.97 1.25-1.13 2.36-2.4 3.33-3.79 1.82-2.6 3.31-5.35 4.61-8.24 0.88-1.97 2.95-3.4 4.1-5.61 -1.93 0.79-3.87 1.57-5.8 2.36 0.38 0.13 0.75 0.26 1.12 0.39 2.44 0.84 5.9-0.94 6.32-3.59 0.82-5.12 1.27-10.13-3.54-13.36 -2.23-1.5-5.83-1.36-8.24-0.41 -6.09 2.41-3.44 12.35 2.73 9.91 0.3-0.12 1.84-0.4 0.85-0.31 1.16-0.11-0.78 0.32-1.43-1.43 0.28 0.76-0.16 2.11-0.28 2.87 2.11-1.2 4.21-2.39 6.32-3.59 -0.37-0.13-0.75-0.26-1.12-0.39 -2.07-0.72-4.8 0.43-5.8 2.36 -0.94 1.83-2.7 2.86-3.71 4.68 -1.23 2.22-2.13 4.61-3.43 6.81 -1.61 2.75-3.67 3.51-5.8 5.63 -2.13 2.13-2.66 5.62-5.33 7.32 -7.3 4.67-14.27 9.95-20.94 15.47 -6.9 5.7-13.84 12.03-17.62 20.27 -1.2 2.61-3.89 4.71-5.97 6.57 -1.19 1.07-1.42 2.76-2.42 3.94 -2.14 2.52-4.69 4.46-7.53 6.12 -9.2 5.36-20.62 5.82-30.97 5.33 -3.07-0.14-5.74-0.85-8.6 0.54 -1.21 0.59-2.47 1.06-3.73 1.54 -4.29 1.63-8.69 3.01-13.08 4.35 -9.83 3-19.79 5.61-29.81 7.93 -3.83 0.89-7.67 1.7-11.54 2.38 -1.49 0.26-2.63 0.19-4.07 0.59 -3 0.83 1.11-0.23-1.46 0.49 -12.71 3.52-26.44 4.66-39.5 6.09 -20.07 2.2-40.41 3.59-60.6 2.55 -4.14-0.21-8.29-0.56-12.39-1.16 -3.75-0.55-8.32-2.65-12.05-2.5 -5.79 0.24-11.59 0.42-17.39 0.47 -19.51 0.17-39.21-0.87-58.33-4.93 -7.71-1.64-15.4-3.84-22.57-7.12 -7.28-3.32-12.71-8-18.46-13.45 -4.93-4.68-9.26-9.41-12.53-15.4 -3.8-6.95-7.76-15.32-6.37-23.5 -3.3 0-6.61 0-9.91 0 0.06 0.41 0.11 0.81 0.17 1.22 0.76 5.44 8.48 4.34 9.91 0 0.43-1.3-0.36 0.86-1.41 0.61 1.95 0.46 3.82 2.48 5.23 3.75 5.58 5.01 11.2 9.3 17.98 12.61 4.69 2.29 9.66 4.36 14.89 4.73 4.71 0.34 9.41 0.73 14.09 1.29 4.6 0.55 9.2 1.42 13.61 2.85 3.4 1.1 5.22 3.89 8.98 3.85 6.84-0.08 13.69-0.38 20.53-0.62 16.08-0.56 32.22-1.56 48.31-1.34 7.94 0.1 16.29-2.87 24.1-4.29 8.23-1.5 16.54-1.43 24.72-2.92 9.13-1.66 18.15-4.01 27.2-6.05 6.57-1.48 13.11-2.3 19.71-3.44 16.67-2.89 32.95-7.7 49.68-10.42 7.57-1.23 15.3-0.36 22.27-1.71 9.6-1.86 18.96-7.03 26.91-12.59 3.88-2.71 9.4-4.02 14.24-4.23 2.06-0.09 4.16 0.2 6.04 1.08 2.25 1.05 3.33 3.61 5.76 4.28 4.24 1.17 8.27-1.96 10.64 3.66 0.94 2.23 2.42 3.65 4.96 3.77 12.69 0.62 26.05-5.72 36.56-12.26 6.21-3.86 12.39-7.85 18.01-12.55 5.09-4.26 7.56-10.24 8.3-16.72C486.89 33.35 476.6 33.43 475.86 39.93z"/><path fill="#006837" d="M430.22 105.06c4.33-11.32 30.66-29.74 36.99-33.74 3.12-2.53 6.22-8.82 7.46-11.97 0.57-1.74 3.29-1.9 4.17-6.38 -1.77-1.06-4.45 0.05-4.45 0.05s-0.59 6.17-3.72 9.9c-3.75 4.96-19.42 14.31-24.44 17.42 -4.39 3.11-21.97 9.38-29.52 8.81 -3.27-8.56-11.2-7.84-15.22-6.84 7.49 14.85 9.59 24.39 9.97 30.74 0.68 3.28 0.91 5.97 0.94 8.2C418.84 117.8 428.48 109.77 430.22 105.06z"/><path fill="#D9E021" d="M425.28 82.02c7.56 0.57 25.14-5.7 29.52-8.81 5.01-3.11 20.69-12.46 24.44-17.42 3.13-3.72 3.72-9.9 3.72-9.9s2.67-1.11 4.45-0.05c0.07-0.36 0.14-0.75 0.18-1.18 1.83-9.42-5.68-6.24-5.68-6.24s-0.59 6.28-3.71 10.06c-3.73 5.04-19.37 14.54-24.37 17.71 -4.37 3.16-21.9 9.54-29.44 8.96 -4.46-11.89-17.6-6.17-17.6-6.17 1.19 2.17 2.27 4.23 3.27 6.2C414.08 74.17 422.01 73.46 425.28 82.02z"/><path fill="#8CC63F" d="M430.77 93.13c6.24-6.94 39.37-27.83 44.37-31 3.12-2.53 6.22-8.82 7.46-11.96 0.57-1.74 3.29-1.9 4.17-6.38 -1.77-1.06-4.45 0.05-4.45 0.05s-0.59 6.17-3.72 9.9c-3.74 4.96-19.42 14.31-24.44 17.42 -4.39 3.11-21.97 9.38-29.52 8.81 -3.27-8.56-11.2-7.84-15.22-6.84 7.49 14.85 9.59 24.39 9.97 30.74 0.68 3.28-0.46 4.05-0.44 6.28C425.41 106.7 429.04 97.84 430.77 93.13z"/><path fill="#891A1A" d="M422.58 105.89c-5.6 8.19-18.72 18.31-49.48 15.35 -11.26 5.71-51.98 16.61-63.89 17.94 -5.01 2.54-92.14 16.85-127.33 6.38 -15.05 0.71-84.68 4.25-113.68-19.42 -14.51-13.72-18.29-15.58-26.56-36.86 0 0-0.4-1.79-0.73-4.21 -1.09 5.08 0.78 13.34 0.78 13.34 8.28 21.28 12.06 23.15 26.57 36.86 29 23.68 98.62 20.14 113.68 19.42 35.2 10.46 122.33-3.84 127.33-6.38 11.91-1.32 52.63-12.23 63.9-17.94 30.76 2.96 43.88-7.16 49.48-15.35 1.39-3.84 1.66-8.78 1.09-14.14C423.5 102.69 423.13 104.38 422.58 105.89z"/><path fill="#C1272D" d="M68.2 128.02c29 23.68 98.62 20.14 113.68 19.42 35.2 10.46 122.33-3.85 127.33-6.38 11.91-1.32 52.64-12.23 63.9-17.94 30.76 2.96 43.88-7.15 49.48-15.34 0.55-1.51 0.92-3.2 1.14-5.01 -1.21-11.33-6.22-24.57-12.65-33.47 -8.86-13.75-30.13-2.34-30.13-2.34S365.95 78.33 351.53 80.3c-13.82-2.43-60.8 11.02-70.83 12.33 -8.16 0.05-41.36 9.65-50.76 10.33 -8.16-0.58-30.72 4.57-39.49 6.5 -6.28-0.59-62.1 2.24-72.14 2.3 -5.06-6.24-29.53-7.36-37.69-7.94 -8.17-2.46-16.35-6.18-24.55-13.03 -10.44-10.62-14.12-8.66-15.15-3.85 0.32 2.42 0.73 4.21 0.73 4.21C49.92 112.44 53.69 114.3 68.2 128.02z"/><path fill="#F15A24" d="M65.07 108.42c41.53 20.47 123.4 10.81 136.84 10.5 31.39 3.77 75.76-12.06 80.24-13.01 10.64-0.52 38.82-6.92 48.89-9.07 31.35-3.94 42.6-7.89 47.62-10.94 5.64-1.91 22.34-6.99 22.54-7.66 -1.04-4.19 8.19-4.27 2.47-7.54 -7.87-5.07-46.98 14.08-46.98 14.08s-10.32 2.5-23.19 3.27c-12.33-0.86-62.48 14.96-71.44 15.47 -7.28 0.04-40.49 7.53-48.9 7.81 -7.28-0.19-36.06 2.65-43.9 3.39 -6.28-1.85-44.36 2.14-53.32 2.19 -4.49-2.3-16.99-8.06-38.33-9.19 -7.29-0.89-8.43-4.92-15.73-7.44 -9.29-3.9-12.29-10.49-13.23-8.71 0.28 0.9 1.91 5.01 1.91 5.01C57.89 104.44 52.16 103.39 65.07 108.42z"/></svg>