<svg xmlns="http://www.w3.org/2000/svg" xmlns:xlink="http://www.w3.org/1999/xlink" version="1.1" id="Layer_1" x="0" y="0" width="495.71" height="201.45" viewBox="0 0 495.71 201.45" enable-background="new 0 0 495.708 201.446" xml:space="preserve"><path fill="#512513" d="M387.23 4.89c0 0-0.54 5.44-3.26 8.7 -3.26 4.35-16.86 12.51-21.21 15.23 -3.81 2.72-19.03 8.16-25.56 7.61 -2.59-7.02-8.69-7.01-12.33-6.28 -8.03-10.17-25.29-1.04-25.29-1.04s-13.05 9.79-25.56 11.42c-11.96-2.17-52.75 9.24-61.45 10.33 -7.07 0-35.89 8.16-44.05 8.7 -7.07-0.54-26.65 3.81-34.26 5.44 -5.44-0.54-53.84 1.63-62.54 1.63 -4.35-5.44-25.56-6.53-32.63-7.07 -7.07-2.17-14.14-5.44-21.21-11.42 -8.57-8.82-11.88-7.71-12.97-3.98 -0.05-0.33-0.1-0.68-0.15-1.06C3.79 47.5 5.37 54.67 5.37 54.67c7.07 18.49 10.33 20.12 22.84 32.09 25.02 20.67 85.38 17.95 98.43 17.4 30.46 9.25 106.05-2.72 110.4-4.89 10.33-1.09 45.68-10.33 55.47-15.23 26.65 2.72 38.07-5.98 42.96-13.05 0.14-0.39 0.27-0.79 0.39-1.21 2.99-2.61 5.47-5.35 6.23-7.39 3.81-9.79 26.73-25.62 32.23-29.06 1.73-1.38 3.45-4.08 4.76-6.56 0.95-0.6 1.7-1.07 2.17-1.35 2.72-2.17 5.44-7.61 6.53-10.33 0.43-1.29 2.22-1.57 3.22-4.06 0.34 0.06 0.67 0.15 0.97 0.34 0.07-0.32 0.12-0.65 0.16-1.02C393.76 2.17 387.23 4.89 387.23 4.89z"/><path fill="none" d="M387.23 4.89c0 0-0.54 5.44-3.26 8.7 -3.26 4.35-16.86 12.51-21.21 15.23 -3.81 2.72-19.03 8.16-25.56 7.61 -2.59-7.02-8.69-7.01-12.33-6.28 -8.03-10.17-25.29-1.04-25.29-1.04s-13.05 9.79-25.56 11.42c-11.96-2.17-52.75 9.24-61.45 10.33 -7.07 0-35.89 8.16-44.05 8.7 -7.07-0.54-26.65 3.81-34.26 5.44 -5.44-0.54-53.84 1.63-62.54 1.63 -4.35-5.44-25.56-6.53-32.63-7.07 -7.07-2.17-14.14-5.44-21.21-11.42 -8.57-8.82-11.88-7.71-12.97-3.98 -0.05-0.33-0.1-0.68-0.15-1.06C3.79 47.5 5.37 54.67 5.37 54.67c7.07 18.49 10.33 20.12 22.84 32.09 25.02 20.67 85.38 17.95 98.43 17.4 30.46 9.25 106.05-2.72 110.4-4.89 10.33-1.09 45.68-10.33 55.47-15.23 26.65 2.72 38.07-5.98 42.96-13.05 0.14-0.39 0.27-0.79 0.39-1.21 2.99-2.61 5.47-5.35 6.23-7.39 3.81-9.79 26.73-25.62 32.23-29.06 1.73-1.38 3.45-4.08 4.76-6.56 0.95-0.6 1.7-1.07 2.17-1.35 2.72-2.17 5.44-7.61 6.53-10.33 0.43-1.29 2.22-1.57 3.22-4.06 0.34 0.06 0.67 0.15 0.97 0.34 0.07-0.32 0.12-0.65 0.16-1.02C393.76 2.17 387.23 4.89 387.23 4.89z"/><path fill="#512513" d="M382.78 4.89c0.2-1.76-0.2 0.91-0.21 0.94 -0.23 1.15-0.59 2.29-1.06 3.36 -0.97 2.15-2.98 3.65-4.76 5.09 -4.15 3.35-8.85 6.12-13.37 8.93 -7.49 4.66-17.15 9.18-26.17 8.78 1.28 0.74 2.56 1.47 3.85 2.21 -3.15-7.28-9.93-9.63-17.36-8.33 1.44 0.38 2.89 0.76 4.33 1.15 -6.43-7.38-16.56-6.97-25.12-4.08 -5.68 1.92-10.18 5.63-15.45 8.4 -4.33 2.28-10.54 5.07-14.62 4.59 -3.68-0.43-7.53 0.11-11.17 0.57 -9.77 1.23-19.41 3.36-29 5.51 -15.78 3.54-30.04 5.76-45.9 9.43 -7.95 1.84-15.48 3.16-23.55 3.87 -9.88 0.88-19.66 3.17-29.34 5.25 -2.36 0.51-7.23-0.04-10.21 0.03 -6.29 0.14-12.57 0.36-18.86 0.57 -11.01 0.38-22.04 1-33.06 1.04 1.05 0.44 2.1 0.87 3.15 1.31 -4.04-4.42-11.06-5.5-16.65-6.42 -6.83-1.12-14.46-0.56-20.98-2.8 -5.08-1.75-9.73-4.45-14.08-7.57 -3.69-2.65-6.46-6.28-10.51-8.47 -5.12-2.77-10.21-0.63-12.03 4.75 2.86 0 5.73 0 8.59 0 -0.05-0.35-0.1-0.71-0.15-1.06 -0.6-4.32-7.89-4.22-8.59 0 -3.28 19.75 11.54 35.55 24.6 47.99 6.59 6.28 16.36 9.76 24.9 12.32 9.97 2.99 20.38 4.48 30.71 5.52 9.5 0.96 19.06 1.28 28.6 1.28 3.47 0 6.95-0.06 10.42-0.16 2.38-0.07 5.13-0.58 7.4 0.05 17.99 4.95 38.18 3.5 56.56 2.19 16.54-1.18 33.22-3.03 49.5-6.26 1.54-0.31 3.1-0.61 4.6-1.09 3.43-1.1-2.34 0.25 1.71-0.34 1.89-0.27 3.76-0.62 5.64-0.98 9.78-1.92 19.46-4.51 29.03-7.28 4.35-1.26 8.67-2.61 12.94-4.11 1.62-0.57 3.23-1.19 4.82-1.86 2.74-1.15 4.39-0.33 7.69-0.21 10.1 0.4 20.67-1.16 29.54-6.24 2.79-1.6 5.36-3.72 7.54-6.08 0.98-1.06 1.85-2.24 2.68-3.41 1.64-2.3 3.81-4.36 5.58-6.7 2.41-3.19 3.76-6.59 6.62-9.6 3.71-3.91 7.93-7.34 12.16-10.66 5.19-4.07 12.7-7.42 16.54-12.89 2.45-3.5 5.62-5.95 8.04-9.52 1.19-1.76 2.12-3.72 3-5.65 0.84-1.86 2.58-3.08 3.59-4.95 -1.68 0.68-3.35 1.37-5.03 2.05 0.32 0.11 0.65 0.23 0.97 0.34 2.11 0.73 5.11-0.82 5.48-3.11 0.62-3.91 1.29-8.91-2.72-11.35 -2.21-1.35-5.08-1.53-7.49-0.58 -5.29 2.07-2.99 10.69 2.37 8.59 0.33-0.13 0.66-0.21 1-0.3 -0.12 0.06-0.22 0.05-0.3-0.04 -0.39-0.36-0.78-0.73-1.18-1.09 -0.02 0.81-0.1 1.62-0.26 2.41 1.83-1.04 3.65-2.07 5.48-3.11 -0.32-0.11-0.65-0.22-0.97-0.34 -1.82-0.63-4.13 0.38-5.03 2.05 -1.04 1.93-2.78 3.02-3.66 5.12 -0.97 2.32-2.27 4.51-3.67 6.59 -1.55 2.29-3.98 2.97-5.4 5.54 -1.34 2.42-2.79 3.73-4.98 5.19 -7.93 5.3-15.64 11.16-22.54 17.75 -3.02 2.88-5.9 6.1-7.97 9.74 -1.21 2.12-2.06 3.86-3.8 5.68 -1.73 1.82-2.81 3.62-4.34 5.46 -5.07 6.11-13.01 8.82-20.66 9.81 -2.95 0.38-5.94 0.44-8.91 0.44 -3.02 0-6.99-1.14-9.88-0.35 -3.54 0.98-7.04 2.87-10.56 4.03 -9.73 3.22-19.68 5.85-29.66 8.22 -3.93 0.93-7.88 1.79-11.86 2.49 -1.51 0.26-3.06 0.3-4.46 0.94 1.71-0.78-0.33 0.01-0.84 0.14 -5.47 1.38-11.12 2.15-16.69 2.97 -19.31 2.86-38.91 4.62-58.43 4.64 -8.94 0.01-18.01-0.36-26.79-2.21 -2.94-0.62-5.38-1.24-8.38-1.13 -3.23 0.13-6.46 0.21-9.69 0.26 -35.65 0.55-82.86-1.38-100.76-38.15 -2.65-5.45-5.19-11.42-4.15-17.65 -2.86 0-5.73 0-8.59 0 0.05 0.35 0.1 0.71 0.15 1.06 0.66 4.73 7.33 3.74 8.59 0 -0.4 1.19-2.6-0.26-0.21 1.03 2.78 1.51 4.84 4.18 7.25 6.16 5.58 4.57 11.9 7.83 18.63 10.32 4.03 1.49 8.28 1.43 12.53 1.81 5.19 0.45 10.35 1.12 15.4 2.42 3.11 0.8 6.29 4.02 9.3 4.01 2.81-0.01 5.62-0.12 8.42-0.2 8.84-0.27 17.69-0.61 26.53-0.91 7.79-0.26 15.59-0.56 23.39-0.6 7.37-0.04 14.44-2.14 21.68-3.49 8.2-1.53 16.46-1.52 24.61-3.14 9.57-1.89 19-4.41 28.55-6.36 9.52-1.94 19.06-3.4 28.58-5.55 12.14-2.75 25.04-6.41 37.59-6.11 7.34 0.18 13.96-2.43 20.48-5.72 3.72-1.87 6.97-4.68 10.7-6.45 4.36-2.08 9.73-3.47 14.51-2.38 3.63 0.83 4.84 4.97 8.91 4.26 3.77-0.66 5.82 0.8 7.3 4.24 0.62 1.44 2.41 2.14 3.85 2.21 10.96 0.49 22.47-4.9 31.56-10.55 10.21-6.35 21.43-12.4 22.93-25.45C392.34-0.81 383.43-0.75 382.78 4.89z"/><path fill="#006837" d="M343.22 61.33c3.75-9.81 26.58-25.78 32.06-29.25 2.71-2.19 5.4-7.65 6.47-10.37 0.5-1.51 2.85-1.65 3.61-5.53 -1.54-0.92-3.85 0.04-3.85 0.04s-0.51 5.35-3.22 8.58c-3.25 4.3-16.83 12.4-21.18 15.1 -3.8 2.7-19.05 8.13-25.59 7.64 -2.84-7.42-9.71-6.8-13.19-5.93 6.49 12.88 8.31 21.14 8.64 26.65 0.59 2.84 0.79 5.17 0.81 7.11C333.36 72.38 341.71 65.42 343.22 61.33z"/><path fill="#D9E021" d="M338.94 41.37c6.55 0.5 21.79-4.94 25.59-7.64 4.35-2.7 17.93-10.8 21.18-15.1 2.71-3.23 3.22-8.58 3.22-8.58s2.32-0.96 3.86-0.04c0.06-0.31 0.12-0.65 0.16-1.02 1.59-8.17-4.93-5.41-4.93-5.41s-0.51 5.44-3.21 8.72c-3.24 4.37-16.79 12.61-21.12 15.35 -3.79 2.74-18.99 8.27-25.52 7.76 -3.87-10.31-15.26-5.35-15.26-5.35 1.03 1.88 1.97 3.66 2.83 5.37C329.23 34.57 336.11 33.95 338.94 41.37z"/><path fill="#8CC63F" d="M343.7 51c5.4-6.01 34.12-24.13 38.46-26.87 2.71-2.19 5.39-7.64 6.47-10.37 0.49-1.51 2.85-1.65 3.61-5.53 -1.54-0.92-3.86 0.04-3.86 0.04s-0.51 5.35-3.22 8.58c-3.25 4.3-16.84 12.4-21.18 15.1 -3.8 2.7-19.04 8.13-25.59 7.64 -2.83-7.42-9.71-6.8-13.19-5.93 6.49 12.88 8.31 21.14 8.64 26.65 0.59 2.84-0.4 3.51-0.38 5.44C339.05 62.76 342.2 55.08 343.7 51z"/><path fill="#891A1A" d="M336.6 62.06c-4.85 7.1-16.22 15.87-42.89 13.3 -9.76 4.95-45.05 14.4-55.38 15.55 -4.34 2.2-79.86 14.6-110.37 5.53 -13.05 0.62-73.4 3.69-98.53-16.83C16.85 67.71 13.58 66.1 6.4 47.65c0 0-0.35-1.55-0.63-3.65 -0.94 4.41 0.68 11.56 0.68 11.56 7.18 18.45 10.45 20.06 23.03 31.95 25.14 20.52 85.48 17.45 98.53 16.83 30.51 9.07 106.03-3.33 110.37-5.53 10.33-1.15 45.62-10.6 55.38-15.55 26.66 2.57 38.03-6.2 42.89-13.3 1.2-3.33 1.44-7.61 0.94-12.26C337.39 59.29 337.07 60.75 336.6 62.06z"/><path fill="#C1272D" d="M29.44 81.24c25.14 20.52 85.48 17.45 98.53 16.83 30.51 9.07 106.03-3.33 110.37-5.53 10.33-1.15 45.62-10.6 55.38-15.55 26.66 2.57 38.03-6.2 42.89-13.3 0.48-1.31 0.8-2.77 0.99-4.34 -1.05-9.82-5.39-21.29-10.97-29.01 -7.68-11.92-26.12-2.02-26.12-2.02s-12.99 9.86-25.49 11.57c-11.98-2.1-52.7 9.55-61.39 10.69 -7.07 0.04-35.85 8.37-44 8.96 -7.07-0.5-26.62 3.96-34.23 5.64 -5.44-0.51-53.83 1.94-62.53 1.99 -4.38-5.41-25.6-6.38-32.67-6.88 -7.08-2.13-14.17-5.36-21.27-11.3 -9.05-9.21-12.24-7.51-13.14-3.33 0.28 2.1 0.63 3.65 0.63 3.65C13.59 67.73 16.86 69.34 29.44 81.24z"/><path fill="#F15A24" d="M26.72 64.25c36 17.74 106.96 9.37 118.61 9.1 27.21 3.27 65.67-10.45 69.55-11.28 9.22-0.46 33.65-5.99 42.38-7.86 27.17-3.42 36.92-6.84 41.28-9.48 4.89-1.66 19.36-6.06 19.54-6.64 -0.91-3.63 7.1-3.7 2.14-6.54 -6.82-4.39-40.72 12.2-40.72 12.2s-8.94 2.17-20.1 2.84c-10.68-0.74-54.16 12.96-61.92 13.41 -6.31 0.04-35.1 6.53-42.38 6.77 -6.31-0.16-31.26 2.3-38.05 2.94 -5.45-1.6-38.45 1.85-46.22 1.9 -3.89-1.99-14.72-6.99-33.22-7.97 -6.31-0.77-7.31-4.27-13.63-6.45 -8.05-3.38-10.65-9.1-11.46-7.55 0.24 0.78 1.66 4.34 1.66 4.34C20.5 60.8 15.53 59.89 26.72 64.25z"/><path fill="#512513" d="M416.93 34.58c0 0-0.54 5.44-3.26 8.7 -3.26 4.35-16.86 12.51-21.21 15.23 -3.81 2.72-19.03 8.16-25.56 7.61 -2.59-7.02-8.69-7.01-12.33-6.28 -8.03-10.17-25.29-1.04-25.29-1.04s-13.05 9.79-25.56 11.42c-11.96-2.17-52.75 9.24-61.45 10.33 -7.07 0-35.89 8.16-44.05 8.7 -7.07-0.54-26.65 3.81-34.26 5.44 -5.44-0.54-53.84 1.63-62.54 1.63 -4.35-5.44-25.56-6.53-32.63-7.07 -7.07-2.17-14.14-5.44-21.21-11.42 -8.57-8.82-11.88-7.71-12.97-3.98 -0.05-0.33-0.1-0.68-0.15-1.06 -0.97 4.4 0.61 11.57 0.61 11.57 7.07 18.49 10.33 20.12 22.84 32.09 25.02 20.66 85.38 17.95 98.43 17.4 30.46 9.24 106.05-2.72 110.4-4.9 10.33-1.09 45.68-10.33 55.47-15.23 26.65 2.72 38.07-5.98 42.96-13.05 0.14-0.39 0.27-0.8 0.39-1.21 2.99-2.61 5.47-5.35 6.23-7.39 3.81-9.79 26.72-25.62 32.23-29.06 1.73-1.38 3.45-4.08 4.76-6.56 0.95-0.6 1.7-1.07 2.17-1.35 2.72-2.17 5.44-7.61 6.53-10.33 0.43-1.29 2.22-1.57 3.22-4.06 0.34 0.06 0.67 0.15 0.97 0.34 0.07-0.32 0.12-0.65 0.16-1.02C423.45 31.86 416.93 34.58 416.93 34.58z"/><path fill="none" d="M416.93 34.58c0 0-0.54 5.44-3.26 8.7 -3.26 4.35-16.86 12.51-21.21 15.23 -3.81 2.72-19.03 8.16-25.56 7.61 -2.59-7.02-8.69-7.01-12.33-6.28 -8.03-10.17-25.29-1.04-25.29-1.04s-13.05 9.79-25.56 11.42c-11.96-2.17-52.75 9.24-61.45 10.33 -7.07 0-35.89 8.16-44.05 8.7 -7.07-0.54-26.65 3.81-34.26 5.44 -5.44-0.54-53.84 1.63-62.54 1.63 -4.35-5.44-25.56-6.53-32.63-7.07 -7.07-2.17-14.14-5.44-21.21-11.42 -8.57-8.82-11.88-7.71-12.97-3.98 -0.05-0.33-0.1-0.68-0.15-1.06 -0.97 4.4 0.61 11.57 0.61 11.57 7.07 18.49 10.33 20.12 22.84 32.09 25.02 20.66 85.38 17.95 98.43 17.4 30.46 9.24 106.05-2.72 110.4-4.9 10.33-1.09 45.68-10.33 55.47-15.23 26.65 2.72 38.07-5.98 42.96-13.05 0.14-0.39 0.27-0.8 0.39-1.21 2.99-2.61 5.47-5.35 6.23-7.39 3.81-9.79 26.72-25.62 32.23-29.06 1.73-1.38 3.45-4.08 4.76-6.56 0.95-0.6 1.7-1.07 2.17-1.35 2.72-2.17 5.44-7.61 6.53-10.33 0.43-1.29 2.22-1.57 3.22-4.06 0.34 0.06 0.67 0.15 0.97 0.34 0.07-0.32 0.12-0.65 0.16-1.02C423.45 31.86 416.93 34.58 416.93 34.58z"/><path fill="#512513" d="M412.47 34.58c0.2-1.76-0.2 0.91-0.21 0.94 -0.23 1.15-0.59 2.29-1.06 3.36 -0.97 2.15-2.98 3.65-4.76 5.09 -4.16 3.35-8.85 6.12-13.37 8.93 -7.48 4.66-17.15 9.18-26.17 8.78 1.28 0.74 2.56 1.47 3.85 2.21 -3.15-7.28-9.93-9.63-17.36-8.33 1.44 0.38 2.89 0.76 4.33 1.15 -6.43-7.38-16.56-6.97-25.12-4.08 -5.68 1.92-10.18 5.63-15.45 8.4 -4.33 2.28-10.54 5.07-14.62 4.59 -3.68-0.43-7.53 0.11-11.17 0.57 -9.77 1.23-19.41 3.36-29 5.51 -15.78 3.54-30.04 5.76-45.91 9.43 -7.95 1.84-15.48 3.16-23.55 3.87 -9.88 0.88-19.66 3.17-29.34 5.25 -2.36 0.51-7.23-0.04-10.21 0.03 -6.29 0.14-12.57 0.36-18.86 0.57 -11.01 0.38-22.04 1-33.06 1.04 1.05 0.44 2.1 0.87 3.15 1.31 -4.04-4.42-11.06-5.5-16.65-6.42 -6.83-1.12-14.46-0.56-20.98-2.8 -5.08-1.75-9.73-4.45-14.08-7.57 -3.69-2.65-6.46-6.28-10.51-8.47 -5.12-2.77-10.21-0.64-12.03 4.75 2.86 0 5.73 0 8.59 0 -0.05-0.35-0.1-0.71-0.15-1.06 -0.6-4.32-7.89-4.22-8.59 0C26.87 91.36 41.7 107.16 54.75 119.6c6.59 6.28 16.36 9.76 24.9 12.32 9.97 2.99 20.38 4.48 30.71 5.52 9.5 0.96 19.06 1.28 28.6 1.28 3.47 0 6.95-0.06 10.42-0.16 2.38-0.07 5.13-0.58 7.4 0.05 17.99 4.95 38.18 3.5 56.56 2.19 16.54-1.18 33.22-3.03 49.5-6.26 1.54-0.31 3.1-0.61 4.6-1.09 3.43-1.1-2.34 0.24 1.71-0.34 1.89-0.27 3.76-0.62 5.64-0.98 9.78-1.92 19.46-4.51 29.03-7.28 4.35-1.26 8.67-2.61 12.94-4.11 1.62-0.57 3.23-1.19 4.82-1.86 2.74-1.15 4.39-0.33 7.69-0.21 10.1 0.4 20.67-1.16 29.54-6.23 2.79-1.6 5.36-3.72 7.54-6.08 0.98-1.06 1.85-2.24 2.68-3.41 1.64-2.3 3.81-4.36 5.58-6.7 2.41-3.19 3.76-6.59 6.62-9.6 3.71-3.91 7.93-7.34 12.16-10.66 5.19-4.07 12.7-7.43 16.54-12.89 2.45-3.5 5.62-5.95 8.04-9.52 1.19-1.76 2.12-3.72 3-5.65 0.84-1.86 2.58-3.08 3.59-4.95 -1.68 0.68-3.35 1.37-5.03 2.05 0.32 0.11 0.65 0.23 0.97 0.34 2.11 0.73 5.11-0.82 5.48-3.11 0.62-3.91 1.29-8.91-2.72-11.35 -2.21-1.35-5.08-1.53-7.49-0.58 -5.29 2.07-2.99 10.69 2.37 8.59 0.33-0.13 0.66-0.21 1-0.3 -0.12 0.06-0.22 0.05-0.3-0.04 -0.39-0.36-0.78-0.73-1.18-1.09 -0.02 0.81-0.1 1.62-0.26 2.41 1.83-1.04 3.65-2.07 5.48-3.11 -0.32-0.11-0.65-0.22-0.97-0.34 -1.82-0.63-4.13 0.38-5.03 2.05 -1.04 1.93-2.78 3.02-3.66 5.12 -0.97 2.32-2.27 4.51-3.67 6.59 -1.55 2.29-3.98 2.97-5.4 5.54 -1.34 2.42-2.79 3.73-4.98 5.19 -7.93 5.3-15.64 11.16-22.54 17.76 -3.02 2.88-5.9 6.1-7.97 9.74 -1.21 2.12-2.06 3.86-3.8 5.68 -1.73 1.82-2.81 3.62-4.34 5.46 -5.07 6.11-13.01 8.82-20.66 9.81 -2.95 0.38-5.94 0.44-8.91 0.44 -3.02 0-6.99-1.14-9.88-0.35 -3.54 0.98-7.04 2.87-10.56 4.03 -9.73 3.22-19.68 5.85-29.66 8.21 -3.93 0.93-7.88 1.79-11.86 2.49 -1.51 0.26-3.06 0.3-4.46 0.94 1.71-0.78-0.33 0.01-0.84 0.14 -5.47 1.38-11.12 2.15-16.69 2.97 -19.31 2.86-38.91 4.62-58.43 4.64 -8.94 0.01-18.01-0.36-26.79-2.21 -2.94-0.62-5.38-1.24-8.38-1.13 -3.23 0.13-6.46 0.21-9.69 0.26 -35.65 0.55-82.86-1.38-100.76-38.15 -2.65-5.45-5.19-11.42-4.15-17.65 -2.86 0-5.73 0-8.59 0 0.05 0.35 0.1 0.71 0.15 1.06 0.66 4.73 7.33 3.74 8.59 0 -0.4 1.19-2.6-0.26-0.21 1.03 2.78 1.51 4.84 4.18 7.25 6.16 5.58 4.57 11.9 7.83 18.63 10.32 4.03 1.49 8.28 1.43 12.53 1.81 5.19 0.45 10.35 1.12 15.4 2.42 3.11 0.8 6.29 4.02 9.3 4.01 2.81-0.01 5.62-0.12 8.42-0.2 8.84-0.27 17.69-0.61 26.53-0.91 7.79-0.26 15.59-0.56 23.39-0.6 7.37-0.04 14.44-2.14 21.68-3.49 8.2-1.53 16.46-1.52 24.61-3.14 9.57-1.89 19-4.41 28.55-6.36 9.52-1.94 19.06-3.4 28.58-5.55 12.14-2.75 25.04-6.41 37.59-6.11 7.34 0.18 13.96-2.43 20.48-5.72 3.72-1.87 6.97-4.68 10.7-6.45 4.35-2.08 9.73-3.47 14.5-2.38 3.63 0.83 4.84 4.97 8.92 4.26 3.77-0.66 5.82 0.8 7.3 4.24 0.62 1.44 2.41 2.14 3.85 2.21 10.96 0.49 22.47-4.9 31.55-10.55 10.21-6.35 21.43-12.4 22.93-25.45C422.04 28.88 413.12 28.94 412.47 34.58z"/><path fill="#006837" d="M372.91 91.03c3.75-9.81 26.58-25.78 32.06-29.25 2.71-2.19 5.4-7.65 6.47-10.37 0.49-1.51 2.85-1.65 3.61-5.53 -1.54-0.92-3.85 0.04-3.85 0.04s-0.51 5.35-3.22 8.58c-3.25 4.3-16.84 12.4-21.18 15.1 -3.8 2.7-19.04 8.13-25.59 7.64 -2.84-7.42-9.71-6.8-13.19-5.93 6.49 12.88 8.31 21.14 8.64 26.65 0.59 2.84 0.79 5.17 0.81 7.11C363.05 102.08 371.41 95.11 372.91 91.03z"/><path fill="#D9E021" d="M368.63 71.06c6.55 0.5 21.79-4.94 25.59-7.64 4.35-2.7 17.93-10.8 21.18-15.1 2.71-3.23 3.22-8.58 3.22-8.58s2.32-0.96 3.86-0.04c0.06-0.32 0.12-0.65 0.16-1.02 1.58-8.17-4.93-5.41-4.93-5.41s-0.51 5.44-3.21 8.72c-3.24 4.37-16.79 12.61-21.12 15.35 -3.79 2.74-18.99 8.27-25.52 7.76 -3.87-10.31-15.26-5.35-15.26-5.35 1.03 1.88 1.97 3.66 2.83 5.37C358.93 64.26 365.8 63.64 368.63 71.06z"/><path fill="#8CC63F" d="M373.39 80.69c5.4-6.01 34.12-24.12 38.46-26.87 2.71-2.19 5.39-7.64 6.47-10.37 0.49-1.51 2.85-1.65 3.61-5.53 -1.54-0.92-3.86 0.04-3.86 0.04s-0.51 5.35-3.22 8.58c-3.25 4.3-16.84 12.4-21.18 15.1 -3.8 2.7-19.04 8.13-25.59 7.64 -2.83-7.42-9.7-6.8-13.19-5.93 6.49 12.88 8.31 21.14 8.64 26.65 0.58 2.84-0.4 3.51-0.38 5.44C368.75 92.45 371.89 84.78 373.39 80.69z"/><path fill="#891A1A" d="M366.29 91.75c-4.85 7.1-16.22 15.87-42.89 13.3 -9.76 4.95-45.05 14.4-55.38 15.55 -4.34 2.2-79.86 14.6-110.37 5.53 -13.05 0.62-73.4 3.69-98.53-16.83 -12.58-11.89-15.85-13.5-23.03-31.95 0 0-0.35-1.55-0.63-3.65 -0.94 4.41 0.68 11.56 0.68 11.56 7.18 18.45 10.45 20.06 23.03 31.95 25.14 20.52 85.48 17.45 98.53 16.83 30.51 9.07 106.03-3.33 110.37-5.53 10.33-1.15 45.62-10.6 55.38-15.55 26.66 2.57 38.03-6.2 42.89-13.3 1.2-3.33 1.44-7.61 0.94-12.26C367.09 88.98 366.77 90.44 366.29 91.75z"/><path fill="#C1272D" d="M59.13 110.93c25.14 20.52 85.48 17.45 98.53 16.83 30.51 9.07 106.03-3.33 110.37-5.53 10.33-1.15 45.62-10.6 55.38-15.55 26.66 2.57 38.03-6.2 42.89-13.3 0.48-1.31 0.8-2.77 0.99-4.34 -1.05-9.82-5.39-21.3-10.97-29.01 -7.68-11.92-26.12-2.02-26.12-2.02s-12.99 9.86-25.49 11.57c-11.98-2.11-52.7 9.55-61.39 10.69 -7.07 0.04-35.85 8.37-44 8.96 -7.07-0.5-26.62 3.96-34.23 5.64 -5.44-0.51-53.83 1.94-62.53 1.99 -4.38-5.41-25.6-6.38-32.67-6.88 -7.08-2.13-14.17-5.36-21.27-11.3 -9.05-9.21-12.24-7.51-13.14-3.33 0.28 2.1 0.63 3.65 0.63 3.65C43.28 97.42 46.55 99.04 59.13 110.93z"/><path fill="#F15A24" d="M56.41 93.94c35.99 17.74 106.96 9.37 118.61 9.1 27.21 3.27 65.67-10.45 69.55-11.28 9.22-0.46 33.65-5.99 42.38-7.86 27.17-3.42 36.92-6.84 41.28-9.48 4.89-1.66 19.36-6.06 19.54-6.64 -0.91-3.63 7.1-3.7 2.14-6.54 -6.82-4.39-40.72 12.2-40.72 12.2s-8.94 2.17-20.1 2.84c-10.68-0.74-54.16 12.96-61.92 13.41 -6.31 0.04-35.1 6.53-42.38 6.77 -6.31-0.16-31.26 2.3-38.05 2.94 -5.45-1.6-38.45 1.85-46.22 1.9 -3.89-1.99-14.72-6.98-33.22-7.97 -6.31-0.77-7.31-4.27-13.63-6.45 -8.05-3.38-10.65-9.1-11.46-7.55 0.24 0.78 1.66 4.34 1.66 4.34C50.19 90.49 45.22 89.58 56.41 93.94z"/><path fill="#512513" d="M456.52 64.27c0 0-0.54 5.44-3.26 8.7 -3.26 4.35-16.86 12.51-21.21 15.23 -3.81 2.72-19.03 8.16-25.56 7.61 -2.59-7.02-8.69-7.01-12.33-6.28 -8.03-10.17-25.29-1.04-25.29-1.04s-13.05 9.79-25.56 11.42c-11.96-2.17-52.75 9.24-61.45 10.33 -7.07 0-35.89 8.16-44.05 8.7 -7.07-0.54-26.65 3.81-34.26 5.44 -5.44-0.55-53.84 1.63-62.54 1.63 -4.35-5.44-25.56-6.53-32.63-7.07 -7.07-2.17-14.14-5.44-21.21-11.42 -8.57-8.82-11.88-7.71-12.97-3.98 -0.05-0.33-0.1-0.68-0.15-1.06 -0.97 4.4 0.61 11.57 0.61 11.57 7.07 18.49 10.33 20.12 22.84 32.09 25.02 20.67 85.38 17.95 98.43 17.4 30.46 9.25 106.05-2.72 110.4-4.89 10.33-1.09 45.68-10.33 55.47-15.23 26.65 2.72 38.07-5.98 42.96-13.05 0.14-0.39 0.27-0.8 0.39-1.21 2.99-2.61 5.47-5.35 6.23-7.39 3.81-9.79 26.73-25.62 32.23-29.06 1.73-1.38 3.45-4.08 4.76-6.56 0.95-0.6 1.7-1.07 2.16-1.35 2.72-2.17 5.44-7.61 6.53-10.33 0.43-1.29 2.22-1.57 3.22-4.06 0.34 0.06 0.67 0.16 0.97 0.34 0.06-0.32 0.12-0.65 0.16-1.02C463.04 61.56 456.52 64.27 456.52 64.27z"/><path fill="none" d="M456.52 64.27c0 0-0.54 5.44-3.26 8.7 -3.26 4.35-16.86 12.51-21.21 15.23 -3.81 2.72-19.03 8.16-25.56 7.61 -2.59-7.02-8.69-7.01-12.33-6.28 -8.03-10.17-25.29-1.04-25.29-1.04s-13.05 9.79-25.56 11.42c-11.96-2.17-52.75 9.24-61.45 10.33 -7.07 0-35.89 8.16-44.05 8.7 -7.07-0.54-26.65 3.81-34.26 5.44 -5.44-0.55-53.84 1.63-62.54 1.63 -4.35-5.44-25.56-6.53-32.63-7.07 -7.07-2.17-14.14-5.44-21.21-11.42 -8.57-8.82-11.88-7.71-12.97-3.98 -0.05-0.33-0.1-0.68-0.15-1.06 -0.97 4.4 0.61 11.57 0.61 11.57 7.07 18.49 10.33 20.12 22.84 32.09 25.02 20.67 85.38 17.95 98.43 17.4 30.46 9.25 106.05-2.72 110.4-4.89 10.33-1.09 45.68-10.33 55.47-15.23 26.65 2.72 38.07-5.98 42.96-13.05 0.14-0.39 0.27-0.8 0.39-1.21 2.99-2.61 5.47-5.35 6.23-7.39 3.81-9.79 26.73-25.62 32.23-29.06 1.73-1.38 3.45-4.08 4.76-6.56 0.95-0.6 1.7-1.07 2.16-1.35 2.72-2.17 5.44-7.61 6.53-10.33 0.43-1.29 2.22-1.57 3.22-4.06 0.34 0.06 0.67 0.16 0.97 0.34 0.06-0.32 0.12-0.65 0.16-1.02C463.04 61.56 456.52 64.27 456.52 64.27z"/><path fill="#512513" d="M452.06 64.27c0.2-1.76-0.2 0.91-0.21 0.94 -0.23 1.15-0.59 2.29-1.06 3.36 -0.96 2.14-2.99 3.72-4.79 5.11 -4.23 3.27-8.81 6.09-13.35 8.91 -7.48 4.66-17.15 9.18-26.17 8.78 1.28 0.74 2.56 1.47 3.85 2.21 -3.15-7.28-9.93-9.63-17.36-8.33 1.44 0.38 2.89 0.76 4.33 1.15 -6.43-7.38-16.56-6.97-25.12-4.08 -5.68 1.92-10.18 5.63-15.45 8.4 -4.33 2.28-10.54 5.07-14.62 4.59 -3.68-0.43-7.53 0.11-11.17 0.57 -9.77 1.23-19.41 3.36-29 5.51 -15.78 3.54-30.04 5.76-45.91 9.43 -7.95 1.84-15.48 3.16-23.55 3.87 -9.88 0.88-19.66 3.17-29.34 5.25 -2.36 0.51-7.23-0.04-10.21 0.03 -6.29 0.14-12.57 0.36-18.86 0.57 -11.01 0.38-22.04 1-33.06 1.04 1.05 0.44 2.1 0.87 3.15 1.31 -4.04-4.42-11.06-5.5-16.65-6.42 -6.83-1.12-14.46-0.56-20.98-2.8 -5.08-1.74-9.73-4.45-14.08-7.57 -3.69-2.65-6.46-6.28-10.51-8.47 -5.12-2.77-10.21-0.63-12.03 4.75 2.86 0 5.73 0 8.59 0 -0.05-0.35-0.1-0.71-0.15-1.06 -0.6-4.32-7.89-4.22-8.59 0 -3.28 19.75 11.54 35.55 24.6 47.99 6.59 6.28 16.36 9.77 24.9 12.32 9.97 2.99 20.38 4.48 30.71 5.52 9.5 0.96 19.06 1.28 28.6 1.28 3.47 0 6.95-0.06 10.42-0.16 2.38-0.07 5.13-0.58 7.4 0.05 17.99 4.95 38.18 3.5 56.56 2.19 16.54-1.18 33.22-3.03 49.5-6.26 1.54-0.31 3.1-0.61 4.6-1.09 3.43-1.1-2.34 0.24 1.71-0.34 1.89-0.27 3.76-0.62 5.64-0.98 9.78-1.92 19.46-4.51 29.03-7.28 4.35-1.26 8.67-2.61 12.94-4.11 1.62-0.57 3.23-1.19 4.82-1.86 2.74-1.15 4.39-0.33 7.69-0.21 10.1 0.4 20.67-1.16 29.54-6.23 2.79-1.6 5.36-3.72 7.54-6.08 0.98-1.06 1.85-2.24 2.68-3.41 1.64-2.3 3.81-4.36 5.58-6.7 2.4-3.2 3.76-6.59 6.62-9.6 3.71-3.9 7.93-7.34 12.16-10.66 5.19-4.07 12.7-7.42 16.54-12.89 2.45-3.5 5.62-5.95 8.04-9.52 1.19-1.76 2.12-3.72 3-5.65 0.84-1.86 2.58-3.08 3.59-4.95 -1.68 0.68-3.35 1.37-5.03 2.05 0.32 0.11 0.65 0.23 0.97 0.34 2.11 0.73 5.11-0.82 5.48-3.11 0.62-3.91 1.29-8.91-2.72-11.35 -2.21-1.35-5.08-1.53-7.49-0.58 -5.29 2.07-2.99 10.69 2.37 8.59 0.33-0.13 0.66-0.21 0.99-0.3 -0.12 0.06-0.22 0.05-0.3-0.04 -0.39-0.36-0.78-0.73-1.18-1.09 -0.02 0.81-0.1 1.62-0.26 2.41 1.83-1.04 3.65-2.07 5.48-3.11 -0.32-0.11-0.65-0.22-0.97-0.34 -1.82-0.63-4.13 0.38-5.03 2.05 -1.04 1.93-2.78 3.02-3.66 5.12 -0.97 2.32-2.27 4.51-3.67 6.59 -1.55 2.29-3.98 2.97-5.4 5.54 -1.34 2.42-2.79 3.73-4.98 5.19 -7.93 5.3-15.64 11.16-22.54 17.75 -3.02 2.88-5.9 6.1-7.97 9.74 -1.21 2.12-2.06 3.86-3.8 5.68 -1.73 1.82-2.81 3.62-4.34 5.47 -5.07 6.11-13.01 8.82-20.66 9.81 -2.95 0.38-5.94 0.44-8.91 0.44 -3.02 0-6.99-1.14-9.87-0.35 -3.54 0.98-7.04 2.87-10.56 4.03 -9.73 3.22-19.68 5.85-29.66 8.21 -3.93 0.93-7.88 1.79-11.86 2.49 -1.51 0.26-3.06 0.3-4.46 0.94 1.71-0.78-0.33 0.01-0.84 0.14 -5.47 1.38-11.12 2.15-16.69 2.97 -19.31 2.86-38.91 4.62-58.43 4.64 -8.94 0.01-18.01-0.36-26.79-2.21 -2.94-0.62-5.38-1.24-8.38-1.13 -3.23 0.13-6.46 0.21-9.69 0.26 -35.65 0.55-82.86-1.38-100.76-38.15 -2.65-5.45-5.19-11.42-4.15-17.65 -2.86 0-5.73 0-8.59 0 0.05 0.35 0.1 0.71 0.15 1.06 0.66 4.73 7.33 3.74 8.59 0 -0.4 1.19-2.6-0.26-0.21 1.03 2.78 1.51 4.84 4.18 7.25 6.16 5.58 4.57 11.9 7.83 18.63 10.32 4.03 1.49 8.28 1.43 12.53 1.81 5.19 0.45 10.35 1.12 15.4 2.42 3.11 0.8 6.29 4.02 9.3 4.01 2.81-0.01 5.62-0.12 8.42-0.2 8.84-0.27 17.69-0.61 26.53-0.91 7.79-0.26 15.59-0.56 23.39-0.6 7.37-0.04 14.44-2.14 21.68-3.49 8.2-1.53 16.46-1.53 24.61-3.14 9.57-1.89 19-4.41 28.55-6.35 9.52-1.94 19.06-3.4 28.58-5.55 12.14-2.75 25.04-6.41 37.59-6.11 7.34 0.18 13.96-2.43 20.48-5.72 3.72-1.87 6.97-4.68 10.7-6.45 4.36-2.08 9.73-3.47 14.51-2.38 3.63 0.83 4.84 4.97 8.92 4.26 3.77-0.66 5.82 0.8 7.3 4.24 0.62 1.44 2.41 2.14 3.85 2.21 10.96 0.5 22.47-4.9 31.56-10.54 10.22-6.35 21.43-12.4 22.93-25.45C461.63 58.57 452.71 58.64 452.06 64.27z"/><path fill="#006837" d="M412.5 120.72c3.75-9.81 26.58-25.78 32.06-29.25 2.71-2.19 5.39-7.65 6.47-10.37 0.49-1.51 2.85-1.65 3.61-5.53 -1.54-0.92-3.85 0.04-3.85 0.04s-0.51 5.35-3.22 8.58c-3.25 4.3-16.84 12.4-21.18 15.1 -3.8 2.7-19.04 8.13-25.59 7.64 -2.84-7.42-9.7-6.8-13.19-5.93 6.49 12.87 8.31 21.14 8.64 26.65 0.58 2.84 0.79 5.17 0.81 7.11C402.64 131.77 411 124.8 412.5 120.72z"/><path fill="#D9E021" d="M408.22 100.75c6.55 0.5 21.79-4.94 25.59-7.64 4.35-2.7 17.93-10.8 21.18-15.1 2.71-3.23 3.22-8.58 3.22-8.58s2.32-0.96 3.85-0.04c0.06-0.32 0.12-0.65 0.16-1.02 1.59-8.17-4.93-5.41-4.93-5.41s-0.51 5.44-3.21 8.72c-3.24 4.37-16.79 12.61-21.12 15.35 -3.79 2.74-18.99 8.27-25.52 7.76 -3.86-10.31-15.26-5.35-15.26-5.35 1.03 1.88 1.97 3.66 2.83 5.37C398.52 93.95 405.39 93.33 408.22 100.75z"/><path fill="#8CC63F" d="M412.99 110.38c5.4-6.01 34.12-24.13 38.46-26.87 2.71-2.19 5.4-7.65 6.47-10.37 0.5-1.51 2.85-1.65 3.61-5.53 -1.54-0.92-3.85 0.04-3.85 0.04s-0.52 5.35-3.22 8.58c-3.25 4.3-16.84 12.4-21.18 15.1 -3.8 2.7-19.05 8.13-25.59 7.64 -2.83-7.42-9.71-6.8-13.19-5.93 6.49 12.88 8.31 21.14 8.64 26.65 0.59 2.84-0.4 3.51-0.38 5.44C408.34 122.15 411.48 114.47 412.99 110.38z"/><path fill="#891A1A" d="M405.88 121.44c-4.85 7.1-16.22 15.87-42.89 13.3 -9.76 4.95-45.05 14.4-55.38 15.55 -4.34 2.2-79.86 14.6-110.37 5.53 -13.05 0.62-73.4 3.69-98.53-16.83 -12.58-11.89-15.85-13.5-23.03-31.95 0 0-0.35-1.55-0.63-3.65 -0.94 4.41 0.68 11.56 0.68 11.56 7.18 18.45 10.45 20.06 23.03 31.95 25.14 20.52 85.48 17.45 98.53 16.83 30.51 9.07 106.03-3.33 110.37-5.53 10.32-1.15 45.62-10.6 55.38-15.55 26.66 2.57 38.03-6.2 42.89-13.3 1.21-3.33 1.44-7.61 0.94-12.26C406.68 118.67 406.36 120.13 405.88 121.44z"/><path fill="#C1272D" d="M98.72 140.62c25.14 20.52 85.48 17.45 98.53 16.83 30.51 9.07 106.03-3.33 110.37-5.53 10.33-1.15 45.62-10.6 55.38-15.55 26.66 2.57 38.03-6.2 42.89-13.3 0.48-1.31 0.8-2.77 0.99-4.34 -1.05-9.82-5.39-21.29-10.97-29.01 -7.68-11.92-26.12-2.02-26.12-2.02s-12.99 9.86-25.49 11.57c-11.97-2.11-52.7 9.55-61.39 10.69 -7.07 0.04-35.85 8.37-44 8.96 -7.07-0.5-26.62 3.96-34.23 5.64 -5.44-0.51-53.83 1.94-62.53 1.99 -4.38-5.41-25.6-6.38-32.67-6.88 -7.08-2.13-14.17-5.36-21.27-11.3 -9.05-9.21-12.24-7.51-13.14-3.33 0.28 2.1 0.63 3.65 0.63 3.65C82.87 127.12 86.15 128.73 98.72 140.62z"/><path fill="#F15A24" d="M96 123.64c36 17.74 106.96 9.37 118.61 9.1 27.21 3.27 65.67-10.45 69.55-11.28 9.22-0.46 33.65-5.99 42.38-7.86 27.17-3.42 36.92-6.84 41.28-9.48 4.89-1.66 19.36-6.06 19.54-6.64 -0.91-3.63 7.1-3.7 2.14-6.54 -6.82-4.39-40.72 12.2-40.72 12.2s-8.94 2.17-20.1 2.84c-10.69-0.74-54.16 12.96-61.92 13.41 -6.31 0.04-35.1 6.53-42.38 6.77 -6.31-0.16-31.26 2.3-38.05 2.94 -5.45-1.6-38.45 1.85-46.22 1.9 -3.89-1.99-14.72-6.98-33.22-7.97 -6.31-0.77-7.31-4.27-13.63-6.45 -8.05-3.38-10.65-9.1-11.46-7.55 0.24 0.78 1.66 4.34 1.66 4.34C89.79 120.19 84.81 119.27 96 123.64z"/><path fill="#512513" d="M486.21 93.97c0 0-0.55 5.44-3.26 8.7 -3.26 4.35-16.86 12.51-21.21 15.23 -3.81 2.72-19.03 8.16-25.56 7.61 -2.59-7.02-8.69-7.01-12.33-6.28 -8.03-10.17-25.29-1.04-25.29-1.04s-13.05 9.79-25.56 11.42c-11.96-2.18-52.75 9.24-61.45 10.33 -7.07 0-35.9 8.16-44.05 8.7 -7.07-0.54-26.65 3.81-34.26 5.44 -5.44-0.54-53.84 1.63-62.54 1.63 -4.35-5.44-25.56-6.53-32.63-7.07 -7.07-2.17-14.14-5.44-21.21-11.42 -8.57-8.82-11.88-7.71-12.97-3.98 -0.05-0.33-0.1-0.68-0.15-1.06 -0.97 4.4 0.61 11.57 0.61 11.57 7.07 18.49 10.33 20.12 22.84 32.09 25.02 20.67 85.38 17.95 98.43 17.4 30.46 9.24 106.05-2.72 110.4-4.89 10.33-1.09 45.68-10.33 55.47-15.23 26.65 2.72 38.07-5.98 42.96-13.05 0.14-0.39 0.27-0.8 0.39-1.21 2.99-2.61 5.47-5.35 6.23-7.39 3.81-9.79 26.73-25.62 32.23-29.06 1.73-1.38 3.45-4.08 4.76-6.56 0.95-0.6 1.7-1.07 2.16-1.35 2.72-2.18 5.44-7.61 6.53-10.33 0.43-1.29 2.22-1.57 3.22-4.06 0.34 0.06 0.67 0.16 0.97 0.34 0.06-0.32 0.12-0.65 0.16-1.02C492.74 91.25 486.21 93.97 486.21 93.97z"/><path fill="none" d="M486.21 93.97c0 0-0.55 5.44-3.26 8.7 -3.26 4.35-16.86 12.51-21.21 15.23 -3.81 2.72-19.03 8.16-25.56 7.61 -2.59-7.02-8.69-7.01-12.33-6.28 -8.03-10.17-25.29-1.04-25.29-1.04s-13.05 9.79-25.56 11.42c-11.96-2.18-52.75 9.24-61.45 10.33 -7.07 0-35.9 8.16-44.05 8.7 -7.07-0.54-26.65 3.81-34.26 5.44 -5.44-0.54-53.84 1.63-62.54 1.63 -4.35-5.44-25.56-6.53-32.63-7.07 -7.07-2.17-14.14-5.44-21.21-11.42 -8.57-8.82-11.88-7.71-12.97-3.98 -0.05-0.33-0.1-0.68-0.15-1.06 -0.97 4.4 0.61 11.57 0.61 11.57 7.07 18.49 10.33 20.12 22.84 32.09 25.02 20.67 85.38 17.95 98.43 17.4 30.46 9.24 106.05-2.72 110.4-4.89 10.33-1.09 45.68-10.33 55.47-15.23 26.65 2.72 38.07-5.98 42.96-13.05 0.14-0.39 0.27-0.8 0.39-1.21 2.99-2.61 5.47-5.35 6.23-7.39 3.81-9.79 26.73-25.62 32.23-29.06 1.73-1.38 3.45-4.08 4.76-6.56 0.95-0.6 1.7-1.07 2.16-1.35 2.72-2.18 5.44-7.61 6.53-10.33 0.43-1.29 2.22-1.57 3.22-4.06 0.34 0.06 0.67 0.16 0.97 0.34 0.06-0.32 0.12-0.65 0.16-1.02C492.74 91.25 486.21 93.97 486.21 93.97z"/><path fill="#512513" d="M481.76 93.97c0.2-1.76-0.2 0.91-0.21 0.94 -0.23 1.14-0.59 2.29-1.06 3.36 -0.96 2.14-2.98 3.71-4.79 5.11 -4.23 3.27-8.82 6.09-13.35 8.91 -7.49 4.66-17.15 9.18-26.17 8.78 1.28 0.74 2.56 1.47 3.85 2.21 -3.15-7.28-9.93-9.63-17.36-8.33 1.44 0.38 2.89 0.76 4.33 1.15 -6.43-7.38-16.56-6.97-25.12-4.08 -5.68 1.92-10.18 5.62-15.45 8.4 -4.33 2.28-10.54 5.07-14.62 4.59 -3.68-0.43-7.53 0.11-11.17 0.57 -9.77 1.23-19.41 3.36-29 5.51 -15.78 3.54-30.04 5.76-45.9 9.43 -7.95 1.84-15.48 3.16-23.55 3.87 -9.88 0.88-19.66 3.17-29.34 5.25 -2.36 0.51-7.23-0.04-10.21 0.03 -6.29 0.14-12.57 0.36-18.86 0.57 -11.01 0.38-22.04 1-33.06 1.04 1.05 0.44 2.1 0.87 3.15 1.31 -4.04-4.42-11.06-5.5-16.65-6.42 -6.83-1.12-14.46-0.56-20.98-2.8 -5.08-1.74-9.73-4.45-14.08-7.56 -3.69-2.65-6.46-6.28-10.51-8.48 -5.12-2.77-10.21-0.63-12.03 4.75 2.86 0 5.73 0 8.59 0 -0.05-0.35-0.1-0.71-0.15-1.06 -0.6-4.32-7.89-4.22-8.59 0 -3.28 19.75 11.54 35.55 24.59 47.99 6.59 6.28 16.36 9.77 24.9 12.32 9.97 2.99 20.38 4.48 30.71 5.52 9.5 0.96 19.06 1.28 28.6 1.28 3.47 0 6.95-0.06 10.42-0.16 2.38-0.07 5.13-0.58 7.4 0.05 17.99 4.95 38.18 3.5 56.55 2.19 16.54-1.18 33.22-3.03 49.5-6.26 1.54-0.31 3.1-0.61 4.6-1.09 3.43-1.1-2.34 0.24 1.71-0.34 1.89-0.27 3.76-0.62 5.64-0.98 9.78-1.92 19.46-4.51 29.03-7.28 4.35-1.26 8.67-2.61 12.94-4.11 1.62-0.57 3.23-1.19 4.82-1.86 2.74-1.15 4.39-0.33 7.69-0.21 10.1 0.4 20.67-1.16 29.54-6.24 2.79-1.6 5.36-3.72 7.54-6.08 0.98-1.06 1.85-2.24 2.68-3.41 1.64-2.3 3.81-4.36 5.58-6.7 2.41-3.19 3.76-6.59 6.62-9.6 3.71-3.9 7.93-7.34 12.16-10.66 5.19-4.07 12.7-7.43 16.54-12.89 2.45-3.5 5.62-5.95 8.04-9.52 1.19-1.76 2.12-3.72 3-5.65 0.84-1.86 2.58-3.08 3.59-4.95 -1.68 0.68-3.35 1.37-5.03 2.05 0.32 0.11 0.65 0.23 0.97 0.34 2.11 0.73 5.11-0.82 5.48-3.11 0.62-3.91 1.29-8.91-2.72-11.35 -2.21-1.35-5.08-1.53-7.49-0.58 -5.29 2.07-2.99 10.69 2.37 8.59 0.33-0.13 0.66-0.21 0.99-0.3 -0.12 0.06-0.22 0.05-0.3-0.04 -0.39-0.36-0.78-0.73-1.18-1.09 -0.02 0.81-0.1 1.62-0.26 2.41 1.83-1.04 3.65-2.07 5.48-3.11 -0.32-0.11-0.65-0.22-0.97-0.34 -1.82-0.63-4.13 0.38-5.03 2.05 -1.04 1.93-2.78 3.02-3.66 5.12 -0.97 2.32-2.27 4.51-3.68 6.59 -1.55 2.29-3.98 2.97-5.4 5.54 -1.34 2.42-2.79 3.73-4.98 5.19 -7.93 5.3-15.64 11.16-22.54 17.76 -3.02 2.88-5.9 6.1-7.97 9.74 -1.21 2.12-2.06 3.86-3.8 5.68 -1.73 1.82-2.81 3.62-4.34 5.47 -5.07 6.11-13.01 8.82-20.66 9.81 -2.95 0.38-5.94 0.44-8.91 0.44 -3.02 0-6.99-1.14-9.87-0.35 -3.54 0.98-7.04 2.87-10.56 4.03 -9.73 3.22-19.68 5.85-29.66 8.21 -3.93 0.93-7.88 1.79-11.86 2.49 -1.51 0.26-3.06 0.3-4.46 0.94 1.71-0.78-0.33 0.01-0.84 0.14 -5.47 1.38-11.12 2.15-16.69 2.97 -19.31 2.86-38.91 4.62-58.43 4.64 -8.94 0.01-18.01-0.36-26.79-2.21 -2.94-0.62-5.38-1.24-8.38-1.13 -3.23 0.13-6.46 0.21-9.69 0.26 -35.65 0.55-82.86-1.38-100.76-38.15 -2.65-5.45-5.19-11.42-4.15-17.65 -2.86 0-5.73 0-8.59 0 0.05 0.35 0.1 0.71 0.15 1.06 0.66 4.73 7.33 3.74 8.59 0 -0.4 1.19-2.6-0.26-0.21 1.03 2.78 1.51 4.84 4.18 7.25 6.16 5.58 4.57 11.9 7.83 18.63 10.32 4.03 1.49 8.28 1.43 12.53 1.81 5.19 0.45 10.35 1.12 15.4 2.42 3.11 0.8 6.29 4.02 9.3 4.01 2.81-0.01 5.62-0.12 8.42-0.2 8.84-0.27 17.69-0.61 26.53-0.91 7.79-0.26 15.59-0.56 23.39-0.6 7.37-0.04 14.44-2.14 21.68-3.49 8.2-1.53 16.47-1.53 24.61-3.14 9.57-1.89 19-4.41 28.55-6.35 9.52-1.94 19.06-3.4 28.58-5.55 12.14-2.75 25.04-6.41 37.59-6.11 7.34 0.18 13.96-2.43 20.48-5.72 3.72-1.87 6.97-4.68 10.7-6.45 4.36-2.08 9.73-3.47 14.51-2.38 3.63 0.83 4.84 4.97 8.91 4.26 3.77-0.66 5.82 0.8 7.3 4.24 0.62 1.44 2.41 2.14 3.85 2.21 10.96 0.49 22.47-4.9 31.56-10.55 10.22-6.35 21.42-12.39 22.93-25.45C491.32 88.27 482.41 88.33 481.76 93.97z"/><path fill="#006837" d="M442.19 150.41c3.75-9.81 26.58-25.78 32.06-29.25 2.71-2.19 5.39-7.65 6.47-10.37 0.49-1.51 2.85-1.65 3.61-5.53 -1.54-0.92-3.85 0.04-3.85 0.04s-0.51 5.35-3.22 8.58c-3.25 4.3-16.84 12.4-21.18 15.1 -3.8 2.7-19.04 8.13-25.59 7.64 -2.84-7.42-9.7-6.8-13.19-5.93 6.49 12.88 8.31 21.14 8.64 26.65 0.59 2.84 0.79 5.17 0.81 7.11C432.34 161.46 440.69 154.5 442.19 150.41z"/><path fill="#D9E021" d="M437.92 130.45c6.55 0.5 21.79-4.94 25.59-7.64 4.35-2.7 17.93-10.8 21.18-15.1 2.71-3.23 3.22-8.58 3.22-8.58s2.32-0.96 3.85-0.04c0.06-0.32 0.12-0.65 0.16-1.02 1.59-8.17-4.93-5.41-4.93-5.41s-0.51 5.44-3.21 8.72c-3.24 4.37-16.79 12.61-21.12 15.35 -3.79 2.74-18.99 8.27-25.52 7.76 -3.86-10.31-15.26-5.35-15.26-5.35 1.03 1.88 1.97 3.66 2.83 5.37C428.21 123.64 435.08 123.03 437.92 130.45z"/><path fill="#8CC63F" d="M442.68 140.08c5.4-6.02 34.12-24.13 38.46-26.87 2.71-2.19 5.4-7.65 6.47-10.37 0.5-1.51 2.85-1.65 3.61-5.53 -1.54-0.92-3.86 0.04-3.86 0.04s-0.51 5.35-3.22 8.58c-3.25 4.3-16.84 12.4-21.18 15.1 -3.8 2.7-19.05 8.13-25.59 7.64 -2.83-7.42-9.71-6.8-13.19-5.93 6.49 12.88 8.31 21.14 8.64 26.65 0.59 2.84-0.4 3.51-0.38 5.44C438.03 151.84 441.17 144.16 442.68 140.08z"/><path fill="#891A1A" d="M435.57 151.14c-4.85 7.1-16.22 15.87-42.89 13.3 -9.76 4.95-45.05 14.4-55.38 15.55 -4.34 2.2-79.86 14.6-110.37 5.53 -13.05 0.62-73.4 3.69-98.53-16.83 -12.58-11.89-15.85-13.5-23.03-31.95 0 0-0.35-1.55-0.63-3.64 -0.94 4.4 0.68 11.56 0.68 11.56 7.18 18.45 10.45 20.06 23.03 31.95 25.14 20.52 85.48 17.45 98.53 16.83 30.51 9.07 106.03-3.33 110.37-5.53 10.32-1.15 45.62-10.6 55.38-15.55 26.66 2.57 38.03-6.2 42.89-13.3 1.21-3.33 1.44-7.61 0.94-12.26C436.37 148.37 436.05 149.83 435.57 151.14z"/><path fill="#C1272D" d="M128.42 170.32c25.14 20.52 85.48 17.45 98.53 16.83 30.51 9.07 106.03-3.33 110.37-5.53 10.33-1.15 45.62-10.6 55.38-15.55 26.66 2.57 38.03-6.2 42.89-13.3 0.48-1.31 0.8-2.77 0.99-4.34 -1.05-9.82-5.39-21.29-10.97-29.01 -7.68-11.92-26.12-2.02-26.12-2.02s-12.99 9.86-25.49 11.57c-11.98-2.1-52.7 9.55-61.39 10.69 -7.07 0.04-35.85 8.37-44 8.96 -7.07-0.5-26.62 3.96-34.23 5.64 -5.44-0.51-53.83 1.94-62.53 1.99 -4.38-5.41-25.6-6.38-32.67-6.88 -7.08-2.13-14.17-5.36-21.27-11.3 -9.05-9.21-12.24-7.51-13.14-3.33 0.28 2.1 0.63 3.65 0.63 3.65C112.57 156.81 115.84 158.43 128.42 170.32z"/><path fill="#F15A24" d="M125.7 153.33c35.99 17.74 106.96 9.37 118.61 9.1 27.21 3.27 65.67-10.45 69.55-11.28 9.22-0.46 33.65-5.99 42.38-7.86 27.17-3.42 36.92-6.84 41.28-9.48 4.89-1.66 19.36-6.06 19.54-6.64 -0.91-3.63 7.1-3.7 2.14-6.54 -6.82-4.39-40.72 12.2-40.72 12.2s-8.94 2.17-20.1 2.84c-10.69-0.74-54.16 12.96-61.92 13.41 -6.31 0.04-35.1 6.53-42.38 6.77 -6.31-0.16-31.26 2.3-38.05 2.94 -5.45-1.6-38.45 1.85-46.22 1.9 -3.89-1.99-14.72-6.99-33.22-7.97 -6.31-0.77-7.31-4.27-13.63-6.45 -8.05-3.38-10.65-9.1-11.46-7.55 0.24 0.78 1.66 4.34 1.66 4.34C119.48 149.88 114.51 148.97 125.7 153.33z"/></svg>