<svg xmlns="http://www.w3.org/2000/svg" xmlns:xlink="http://www.w3.org/1999/xlink" version="1.1" id="Layer_1" x="0px" y="0px" width="407.01px" height="268.835px" viewBox="0 0 407.01 268.835" enable-background="new 0 0 407.01 268.835" xml:space="preserve">
  <g>
    <path fill="#42210B" stroke="#42210B" stroke-width="21.2511" d="M33.792 179.597c0 0-40.735-3.542-14.174-37.182 7.084-10.633-8.849-90.321 100.943-123.975 73.519-22.52 132.827 8.855 145.22 28.343 10.623 0 35.421 8.849 17.71 30.097 0 14.17-3.537 102.717-88.544 132.82C194.947 209.7 102.85 262.832 33.792 179.597z"/>
    <path fill="#FCEE21" stroke="#DFBA25" stroke-width="4.2276" d="M224.826 122.708c-3.493 0 7.75-4.429 5.533-12.18C236.999 114.957 230.359 122.708 224.826 122.708z"/>
    <path fill="#FCEE21" stroke="#DFBA25" stroke-width="4.2276" d="M207.119 149.267c-3.5 0 7.751-4.422 5.541-12.168C219.293 141.524 212.659 149.267 207.119 149.267z"/>
    <path fill="#FCEE21" stroke="#DFBA25" stroke-width="4.2276" d="M175.24 175.833c-3.497 0 7.746-4.428 5.534-12.175C187.414 168.09 180.774 175.833 175.24 175.833z"/>
    <path fill="#FCEE21" stroke="#DFBA25" stroke-width="4.2276" d="M139.819 191.768c-3.494 0 7.75-4.428 5.544-12.171C151.999 184.025 145.364 191.768 139.819 191.768z"/>
    <path fill="#FCDB14" stroke="#DFBA25" stroke-width="6.7641" d="M33.792 179.597c0 0-40.735-3.542-14.174-37.182 7.084-10.633-8.849-90.321 100.943-123.975 73.519-22.52 132.827 8.855 145.22 28.343 10.623 0 35.421 8.849 17.71 30.097 0 14.17-3.537 102.717-88.544 132.82C194.947 209.7 102.85 262.832 33.792 179.597z"/>
    <path fill="#FCEE21" stroke="#DFBA25" stroke-width="4.2276" d="M157.531 156.355c-3.498 0 7.75-4.432 5.536-12.18C169.706 148.604 163.067 156.355 157.531 156.355z"/>
    <path fill="#FCEE21" stroke="#DFBA25" stroke-width="4.2276" d="M139.819 191.768c-3.494 0 7.75-4.428 5.544-12.171C151.999 184.025 145.364 191.768 139.819 191.768z"/>
    <path fill="#FCEE21" stroke="#DFBA25" stroke-width="4.2276" d="M169.926 191.768c-3.497 0 7.751-4.428 5.539-12.171C182.106 184.025 175.465 191.768 169.926 191.768z"/>
    <path fill="#FCEE21" stroke="#DFBA25" stroke-width="4.2276" d="M182.323 156.355c-3.498 0 7.749-4.432 5.539-12.18C194.501 148.604 187.861 156.355 182.323 156.355z"/>
    <path fill="#FCEE21" stroke="#DFBA25" stroke-width="4.2276" d="M200.034 174.07c-3.496 0 7.744-4.437 5.531-12.184C212.205 166.322 205.565 174.07 200.034 174.07z"/>
    <path fill="#FCEE21" stroke="#DFBA25" stroke-width="4.2276" d="M217.74 140.417c-3.5 0 7.756-4.435 5.54-12.178C229.92 132.669 223.28 140.417 217.74 140.417z"/>
    <path fill="#FCEE21" stroke="#DFBA25" stroke-width="4.2276" d="M242.543 117.393c-3.504 0 7.743-4.425 5.528-12.17C254.71 109.648 248.071 117.393 242.543 117.393z"/>
    <path fill="#FCEE21" stroke="#DFBA25" stroke-width="4.2276" d="M192.952 120.939c-3.504 0 7.75-4.428 5.534-12.177C205.125 113.192 198.486 120.939 192.952 120.939z"/>
    <path fill="#DFBA25" d="M32.607 179.01c0 0 17.708-7.085 10.623-24.795 5.316 8.859 8.859 24.795-3.541 31.874C36.151 184.318 32.607 179.01 32.607 179.01z"/>
    <path fill="#DFBA25" d="M270.511 59.771c0 0 9.443 8.851 10.025 22.425C284.666 75.701 280.536 66.262 270.511 59.771z"/>
  </g>
  <g>
    <path fill="none" stroke="#8CC63F" stroke-width="6.4894" d="M316.705 102.007c-9.637 13.402-14.631 28.141-17.019 41.809 -2.48-14.83-7.584-31.004-17.572-44.522 -41.292-46.643-80.846-44.218-80.846-44.218 -4.471 25.383-14.439 53.993 16.073 92.437 4.68 5.905 9.896 10.944 15.368 15.256 -4.49-0.16-9.031 0.013-13.575 0.599 -60.846 13.339-77.994 49.065-77.994 49.065 19.99 16.267 40.122 38.908 88.561 30.983 22.663-3.705 40.81-15.595 53.681-27.194 5.847 9.703 13.328 19.038 22.851 26.39 52.455 33.587 89.842 20.446 89.842 20.446 -2.638-25.629-0.853-55.875-40.706-84.526 -1.342-0.966-2.698-1.872-4.053-2.746 10.78-6.084 21.344-14.117 29.469-24.646 33.586-52.457 20.45-89.848 20.45-89.848C375.598 63.926 345.355 62.153 316.705 102.007z"/>
    <path fill="#006837" d="M316.705 102.007c-9.637 13.406-14.631 28.148-17.019 41.812 -2.485-14.833-7.584-31.007-17.572-44.525 -41.292-46.643-80.846-44.218-80.846-44.218 -4.471 25.383-14.439 53.993 16.073 92.437 4.68 5.901 9.891 10.944 15.365 15.256 -4.487-0.16-9.028 0.013-13.572 0.599 -60.846 13.339-77.994 49.065-77.994 49.065 19.99 16.267 40.122 38.908 88.561 30.983 22.663-3.705 40.81-15.595 53.681-27.194 5.847 9.703 13.328 19.038 22.851 26.39 52.455 33.587 89.842 20.446 89.842 20.446 -2.638-25.629-0.853-55.875-40.706-84.526 -1.342-0.957-2.689-1.877-4.05-2.749 10.781-6.081 21.341-14.118 29.466-24.644 33.586-52.457 20.45-89.848 20.45-89.848C375.598 63.926 345.355 62.153 316.705 102.007z"/>
    <path fill="#007C45" d="M214.819 65.986l10.705 18.429c0 0-12.249 1.003-16.03 7.959 3.697 0.653 15.597-5.492 19.359-1.645 3.773 3.846 6.303 7.472 6.878 11.388 -6.098 2.094-13.337-3.638-18.569 4.331 9.795-1.441 13.707-2.016 19.942 2.269 2.531 3.624 9.841 12.552 9.841 12.552s-17.975-2.559-27.846 6.499c2.246 1.666 24.656-6.429 31.171-0.187 2.538 3.628-14.945 12.601-18.362 24.701 4.357-3.035 17.934-22.237 25.178-16.502 6.009 5.522 12.954 20.098 12.954 20.098l6.09-2.095 -15.708-22.494c0 0 6.975-17.826 17.852-14.623 -6.453-3.052-18.855 2.373-21.684 7.587 -2.241-1.67 8.363-22.036 17.497-19.773 -9.071 0.929-23.577 11.066-23.577 11.066 -1.81-4.138-8.105-11.608-8.105-11.608s6.388-10.943 11.532-11.302c-6.379 0.138-14.36 5.716-14.36 5.716l-5.355-9.216c0 0 3.93-11.377 9.363-9.778 -5.652-0.37-13.92 3.25-13.92 3.25L214.819 65.986z"/>
    <path fill="#007C45" d="M171.809 206.439l21.217-1.821c0 0-4.667 10.085-0.206 15.596 2.265-2.687 2.192-14.363 7.319-15.949 5.119-1.594 9.497-2.291 13.228-1.333 -0.898 5.593-9.274 9.266-4.574 16.296 3.159-8.289 4.428-11.601 11.062-14.991 4.369-0.697 15.611-3.27 15.611-3.27s-10.428 13.346-6.865 24.447c2.501-1.181 5.474-21.883 13.972-24.8 4.372-0.692 4.414 16.427 13.605 23.518 -0.726-4.553-11.608-22.275-3.24-25.942 7.625-2.774 23.721-3.006 23.721-3.006l0.9-5.59 -27.089 4.318c0 0-12.67-11.995-4.898-19.46 -5.626 4.011-6.436 15.813-3.091 19.96 -2.502 1.17-15.768-14.622-9.624-21.043 -3.286 7.524-0.869 22.705-0.869 22.705 -4.479-0.056-13.979 2.228-13.979 2.228s-6.816-9.031-4.802-13.248c-2.766 5.11-1.443 13.462-1.443 13.462l-10.606 0.915c0 0-8.319-7.235-4.436-10.966 -2.892 4.352-3.427 12.217-3.427 12.217L171.809 206.439z"/>
    <path fill="#007C45" d="M386.58 78.29l-14.159 15.903c0 0-3.543-10.532-10.572-11.47 0.206 3.508 8.274 11.939 5.645 16.619 -2.628 4.675-5.321 8.185-8.695 10.057 -3.19-4.681 0.377-13.104-7.878-14.986 3.396 8.196 4.759 11.474 2.268 18.491 -2.69 3.509-9.091 13.104-9.091 13.104s-1.596-16.854-11.805-22.476c-1.014 2.575 11.054 19.664 6.877 27.618 -2.698 3.509-14.479-8.898-26.04-7.736 3.654 2.808 23.745 8.201 20.182 16.623 -3.634 7.253-15.176 18.482-15.176 18.482l3.19 4.68 16.715-21.751c0 0 17.446 0.007 16.925 10.775 1.339-6.789-6.181-15.923-11.46-16.624 1.01-2.575 21.495-0.226 21.453 8.677 -2.791-7.734-14.981-17.099-14.981-17.099 3.312-3.04 8.631-11.226 8.631-11.226s11.16 1.875 12.591 6.324c-1.498-5.622-8.2-10.769-8.2-10.769l7.077-7.957c0 0 11.015-0.456 10.756 4.922 -0.887-5.149-5.897-11.234-5.897-11.234L386.58 78.29z"/>
    <path fill="#007C45" d="M375.472 250.854l-15.138-14.987c0 0 10.709-2.974 12.023-9.941 -3.518 0.021-12.364 7.626-16.899 4.756 -4.529-2.87-7.896-5.751-9.582-9.221 4.843-2.931 13.068 1.074 15.373-7.067 -8.36 2.958-11.702 4.146-18.576 1.288 -3.366-2.879-12.602-9.773-12.602-9.773s16.912-0.702 23.064-10.614c-2.513-1.142-20.224 10.005-27.945 5.421 -3.357-2.873 9.656-13.995 9.105-25.599 -3.004 3.504-9.454 23.283-17.669 19.279 -7.049-4.013-17.654-16.128-17.654-16.128l-4.848 2.942 20.845 17.835c0 0-0.931 17.417-11.649 16.33 6.702 1.699 16.221-5.338 17.198-10.563 2.519 1.142-0.914 21.484-9.791 20.963 7.865-2.379 17.861-14.055 17.861-14.055 2.857 3.463 10.752 9.212 10.752 9.212s-2.467 11.041-6.983 12.23c5.687-1.197 11.198-7.622 11.198-7.622l7.557 7.496c0 0-0.112 11.028-5.48 10.474 5.188-0.604 11.533-5.292 11.533-5.292L375.472 250.854z"/>
  </g>
</svg>
