<svg xmlns="http://www.w3.org/2000/svg" xmlns:xlink="http://www.w3.org/1999/xlink" version="1.1" x="0" y="0" width="194.88" height="183" viewBox="0 0 194.88 183" enable-background="new 0 0 194.884 182.997" xml:space="preserve"><path fill="none" d="M102.29 158.44c0 0 1.85-4.53 5.21-0.84 3.36 3.7 2.51 2.44 4.37 4.03"/><path fill="#201400" d="M102.94 158.82c0.22-0.51 0.52-0.97 0.9-1.37 1.44-1.53 3.07 0.64 4.01 1.65 1.09 1.18 2.27 2.04 3.48 3.06 0.74 0.62 1.82-0.44 1.07-1.07 -0.62-0.52-1.31-0.94-1.91-1.47 -1.45-1.26-2.48-3.03-4.22-3.92 -1.95-1-3.89 0.61-4.63 2.36C101.26 158.94 102.56 159.71 102.94 158.82L102.94 158.82z"/><path fill="none" d="M30.58 142.15c0 0 2.69 9.74 8.4 3.02"/><path fill="#201400" d="M29.85 142.35c0.47 1.68 1.3 3.36 2.5 4.64 2.35 2.48 5.28 0.85 7.16-1.28 0.64-0.73-0.42-1.8-1.07-1.07 -1.69 1.92-3.76 3.06-5.54 0.67 -0.73-0.98-1.26-2.18-1.59-3.36C31.04 141.01 29.58 141.41 29.85 142.35L29.85 142.35z"/><path fill="none" d="M123.83 159.64c0 0 9.58 16.83 20.41 10.72"/><path fill="#201400" d="M123.04 160.1c4.26 7.38 12.66 15.62 21.65 11.04 1.04-0.53 0.12-2.1-0.92-1.57 -7.98 4.06-15.47-3.99-19.17-10.39C124.03 158.17 122.46 159.09 123.04 160.1L123.04 160.1z"/><path fill="none" d="M157.54 163.98c0 0 5.71 5.38 8.06-2.68"/><path fill="#201400" d="M157.01 164.51c1.05 0.98 2.47 1.78 3.91 1.94 3.06 0.34 4.62-2.42 5.41-4.96 0.29-0.93-1.17-1.33-1.46-0.4 -0.66 2.12-1.87 4.43-4.42 3.73 -0.86-0.23-1.72-0.77-2.37-1.38C157.37 162.78 156.29 163.85 157.01 164.51L157.01 164.51z"/><path fill="none" d="M182.06 147.86c0 0 9.4 16.79-6.38 11.09"/><path fill="#201400" d="M181.41 148.24c1.11 2 2 4.18 2.48 6.41 0.29 1.34 0.45 3.06-0.62 4.1 -1.71 1.66-5.59 0.09-7.38-0.54 -0.92-0.32-1.31 1.14-0.4 1.46 3.83 1.34 10.1 2.48 10.12-3.34 0.01-3.03-1.43-6.25-2.88-8.85C182.24 146.63 180.94 147.39 181.41 148.24L181.41 148.24z"/><path fill="#FFFFFF" d="M169.3 161.97c0 0 6.38 5.37 7.06-6.72"/><path fill="none" d="M169.3 161.97c0 0 6.38 5.37 7.06-6.72"/><path fill="#201400" d="M168.77 162.5c1.11 0.92 2.62 1.58 4.08 1.36 3.66-0.55 4.09-5.8 4.27-8.61 0.06-0.97-1.45-0.97-1.51 0 -0.12 1.96-0.33 7-3.23 7.15 -0.63 0.03-1.25-0.21-1.8-0.5 -0.21-0.11-0.42-0.25-0.62-0.38 -0.23-0.16-0.02 0-0.11-0.08C169.09 160.81 168.02 161.88 168.77 162.5L168.77 162.5z"/><path fill="none" d="M96.41 145.51c0 0 4.7-5.71 8.06-3.02"/><path fill="#201400" d="M96.94 146.04c1.58-1.89 4.65-4.7 7.15-2.9 0.79 0.57 1.55-0.74 0.76-1.3 -3.12-2.25-6.95 0.71-8.98 3.14C95.26 145.71 96.32 146.79 96.94 146.04L96.94 146.04z"/><path fill="#FFFFFF" d="M190.46 150.38c3.92-8.81-1.67-21.73-2-22.47 0.13 0.29 1.04 2.25 1.67 1.31 -7.39-26.87-30.23-31.91-30.23-31.91l3.49 13.3c-4.17-4.74-10.47-8.44-19.48-10.27 -0.47-0.98-0.98-1.81-1.48-2.35 16.46 6.38 13.44 0.34 12.43-1.01 4.7 0.67 6.38 0.67 7.05-1.68 -16.79-9.74-15.45-35.27-15.45-41.99 0-3.46-2.07-6.12-3.97-7.84 1.57 0.5 2.88 1.52 3.5 2.55 2.86 4.04 4.97 7.22 10.9 4.02 6.44-3.86 0.92-11.46-3.99-12.85 -1.59-0.58-5.4-0.96-6.5-3.72 -1.27-3.47 3.2-4.08 5.89-0.98 3.22 3.95 7.19 5.51 11.46 4.41 6.81-2.43 4.53-14.82-4.49-12.42 -6.14 1.2-10.88-0.99-12.08-2.13 -1.65-1.39 2.22-1.7 5.21-1.26 7.86 2.53 13.27-1.52 11.35-5.73 -3.53-7.81-17.02-3.05-21.29-1.96 -3.99 0.42-0.35-1.65 3.21-2.57 11.37-2.7 8.88-10.33 1.5-9.8 -24.86 1.93-36.89 26.13-39.89 33.22 -5.57 3.92-8.1 10.23-9.24 15.05 -3.58-1.77-7.73-2.46-12.85-1 -21.01 7.73-5.29 25.82-5.29 25.82 1.06-5.51 6-7.92 6-7.92 4.41-1.44 7.96 3.1 12.74 6.42 2.6 4.17 3.75 8.82-4.57 8.26 0.1 0.27 0.23 0.54 0.38 0.81 -1.19-1.32-1.72-2.49-1.72-2.49 -0.66 6.26 0.59 10.42 2.78 12.96 -2.23 1.95-5.02 3.9-8.5 5.85 -3.54 1.4-5.73 2.74-7.01 3.92 -0.13-0.08-0.25-0.16-0.37-0.23 -15.84 3.06-19.95-4.46-20.71-8.29 7.72 0.46 10.16-13.06 8.62-15.22 -9.74-8.73-1.68-15.45 0.34-18.48 0-3.02-3.69-5.71-9.07-5.03 -0.24 0.1-0.47 0.22-0.69 0.34 -2.55-2.87-5.49-10.9-7.03-16.12 -3.71-5.07-7.19-3.23-9.45-0.8 -0.37-0.6-0.7-1.13-0.96-1.55 -9.4-14.1-18.14-13.44-20.83-11.76 2.69 2.69 9.74 14.44 13.1 22.17C21.84 25.76 9.75 30.46 6.73 32.81c3.36 0.67 9.74 15.45 13.1 21.16C10.76 38.86 3.37 47.93 3.03 49.61c3.69 3.36 7.06 11.75 8.4 15.11 -1.68 4.71 3.36 18.81 5.37 22.84 -2.01 6.05-3.7 19.48-1.34 23.52 -0.67-1.01-2.01-1.68-4.7-1.68 -7.73 6.05 3.36 20.49 0.34 20.49 -3.02 6.72 8.06 15.12 14.11 18.14 -2.01-0.34-2.69 2.01-4.03 3.02 13.77 12.09 30.57 11.08 30.57 11.08 0.64-0.11 1.26-0.24 1.88-0.36 1.13 1.76 2.5 3.56 4.16 5.4 3.36-4.03 5.71-6.72 7.39-6.72 2.35 4.37 10.75 14.44 15.45 15.12 1.01-3.02 0.67-8.4 4.03-6.38 2.86 2.08 12.16 11.19 41.12 4.32 21.42 13.28 30.72 2.23 32.11 1.39 3.36 7.73 11.42-1.34 13.77-2.69 2.02 7.39 10.75-4.7 10.75-4.7s0.67 1.68 2.02 3.36C196.84 163.81 189.79 150.38 190.46 150.38z"/><path fill="none" d="M190.46 150.38c3.92-8.81-1.67-21.73-2-22.47 0.13 0.29 1.04 2.25 1.67 1.31 -7.39-26.87-30.23-31.91-30.23-31.91l3.49 13.3c-4.17-4.74-10.47-8.44-19.48-10.27 -0.47-0.98-0.98-1.81-1.48-2.35 16.46 6.38 13.44 0.34 12.43-1.01 4.7 0.67 6.38 0.67 7.05-1.68 -16.79-9.74-15.45-35.27-15.45-41.99 0-3.46-2.07-6.12-3.97-7.84 1.57 0.5 2.88 1.52 3.5 2.55 2.86 4.04 4.97 7.22 10.9 4.02 6.44-3.86 0.92-11.46-3.99-12.85 -1.59-0.58-5.4-0.96-6.5-3.72 -1.27-3.47 3.2-4.08 5.89-0.98 3.22 3.95 7.19 5.51 11.46 4.41 6.81-2.43 4.53-14.82-4.49-12.42 -6.14 1.2-10.88-0.99-12.08-2.13 -1.65-1.39 2.22-1.7 5.21-1.26 7.86 2.53 13.27-1.52 11.35-5.73 -3.53-7.81-17.02-3.05-21.29-1.96 -3.99 0.42-0.35-1.65 3.21-2.57 11.37-2.7 8.88-10.33 1.5-9.8 -24.86 1.93-36.89 26.13-39.89 33.22 -5.57 3.92-8.1 10.23-9.24 15.05 -3.58-1.77-7.73-2.46-12.85-1 -21.01 7.73-5.29 25.82-5.29 25.82 1.06-5.51 6-7.92 6-7.92 4.41-1.44 7.96 3.1 12.74 6.42 2.6 4.17 3.75 8.82-4.57 8.26 0.1 0.27 0.23 0.54 0.38 0.81 -1.19-1.32-1.72-2.49-1.72-2.49 -0.66 6.26 0.59 10.42 2.78 12.96 -2.23 1.95-5.02 3.9-8.5 5.85 -3.54 1.4-5.73 2.74-7.01 3.92 -0.13-0.08-0.25-0.16-0.37-0.23 -15.84 3.06-19.95-4.46-20.71-8.29 7.72 0.46 10.16-13.06 8.62-15.22 -9.74-8.73-1.68-15.45 0.34-18.48 0-3.02-3.69-5.71-9.07-5.03 -0.24 0.1-0.47 0.22-0.69 0.34 -2.55-2.87-5.49-10.9-7.03-16.12 -3.71-5.07-7.19-3.23-9.45-0.8 -0.37-0.6-0.7-1.13-0.96-1.55 -9.4-14.1-18.14-13.44-20.83-11.76 2.69 2.69 9.74 14.44 13.1 22.17C21.84 25.76 9.75 30.46 6.73 32.81c3.36 0.67 9.74 15.45 13.1 21.16C10.76 38.86 3.37 47.93 3.03 49.61c3.69 3.36 7.06 11.75 8.4 15.11 -1.68 4.71 3.36 18.81 5.37 22.84 -2.01 6.05-3.7 19.48-1.34 23.52 -0.67-1.01-2.01-1.68-4.7-1.68 -7.73 6.05 3.36 20.49 0.34 20.49 -3.02 6.72 8.06 15.12 14.11 18.14 -2.01-0.34-2.69 2.01-4.03 3.02 13.77 12.09 30.57 11.08 30.57 11.08 0.64-0.11 1.26-0.24 1.88-0.36 1.13 1.76 2.5 3.56 4.16 5.4 3.36-4.03 5.71-6.72 7.39-6.72 2.35 4.37 10.75 14.44 15.45 15.12 1.01-3.02 0.67-8.4 4.03-6.38 2.86 2.08 12.16 11.19 41.12 4.32 21.42 13.28 30.72 2.23 32.11 1.39 3.36 7.73 11.42-1.34 13.77-2.69 2.02 7.39 10.75-4.7 10.75-4.7s0.67 1.68 2.02 3.36C196.84 163.81 189.79 150.38 190.46 150.38z"/><path fill="#151210" d="M193.38 151.18c3.1-7.96 0.98-17.21-2.3-24.8 -1.74 1.02-3.48 2.03-5.22 3.05 0.42 0.85 0.91 1.55 1.63 2.15 1.14 0.95 2.32 1.09 3.66 0.47 0.17-0.08 0.34-0.15 0.51-0.23 1.2-0.55 1.74-2.21 1.39-3.41 -4.42-15.23-16.11-30.33-32.34-34.02 -2.24-0.51-4.32 1.42-3.72 3.72 1.16 4.43 2.33 8.87 3.49 13.3 1.69-0.98 3.37-1.96 5.05-2.94 -2.49-2.71-5.34-4.88-8.54-6.7 -1.9-1.08-3.98-1.87-6.02-2.64 -2.17-0.81-4.5-0.75-5.93-2.68 -1.14 1.48-2.28 2.96-3.41 4.44 3.48 1.31 12.42 5.48 15.83 1.51 1.79-2.08 1.56-4.79 0.02-6.96 -0.87 1.52-1.74 3.03-2.61 4.55 4.38 0.58 8.17 0.7 9.97-3.9 0.5-1.26-0.32-2.76-1.39-3.41 -9.36-5.75-12.6-16.63-13.62-27 -0.79-8.08 1.24-16.11-5.19-22.36 -1.22 1.58-2.44 3.17-3.66 4.75 4.23 1.89 5.49 7.81 10.75 8.21 4.82 0.36 9.51-2.49 10.93-7.14 1.22-3.98-1.84-8.23-4.69-10.6 -1.47-1.22-3.14-1.93-4.94-2.49 -1.01-0.31-2-0.51-2.97-0.96 -0.23 1.19 0.18 2.11 1.21 2.76 0.55 0.56 1.14 1.06 1.76 1.52 7.07 5.11 18.14 2.87 17.68-7.26 -0.16-3.52-2.41-6.99-5.73-8.27 -1.71-0.66-3.56-0.88-5.37-0.51 -2.18 0.44-8.47 1.32-10.19-1.04 0 1.02 0 2.04 0 3.05 -0.27 0.62 6.51 1.49 7.66 1.55 2.46 0.14 5.03-0.72 7.02-2.1 3.71-2.59 3.72-7.26 1.19-10.66 -2.53-3.4-6.82-4.22-10.81-4.18 -2.41 0.02-4.86 0.53-7.2 1.04 -0.72 0.16-4.92 1.68-5.02 1.63 0.36 1.38 0.72 2.76 1.09 4.14 0.32-0.61 5.28-1.56 6.73-2.21 1.96-0.88 4.17-2.1 5.29-4.05 1.66-2.89 1.34-6.05-1.14-8.36 -3.21-3-8.08-2.13-11.96-1.48 -5.62 0.94-11 3.42-15.73 6.52 -7.76 5.08-13.8 12.59-18.39 20.56 -1.36 2.36-2.23 5.52-4.23 7.32 -4.59 4.14-7.27 9.51-8.78 15.44 1.48-0.6 2.96-1.2 4.44-1.81 -10.14-4.58-26.06-0.8-28.13 11.75 -1.05 6.37 2.28 13.08 6.33 17.81 1.5 1.75 4.51 0.75 5.05-1.33 0.57-2.22 1.58-3.78 3.28-5.28 1.52-1.34 2.94-0.36 4.5 0.6 1.61 0.98 4.91 3.03 5.93 4.75 1.71 2.89 0.55 2.96-2.46 2.87 -2.47-0.07-3.53 2.58-2.61 4.55 0.13 0.27 0.25 0.54 0.38 0.81 1.58-1.22 3.17-2.44 4.75-3.66 -0.5-0.57-0.92-1.2-1.25-1.88 -1.48-2.88-5.42-1.25-5.63 1.53 -0.43 5.55 0.2 10.63 3.67 15.1 0-1.42 0-2.85 0-4.28 -4.78 4.01-10.79 5.81-15.51 9.77 1.22-0.16 2.44-0.31 3.66-0.47 -2.06-1.26-4.51-0.19-6.76 0.01 -2.56 0.23-5.08-0.02-7.54-0.77 -2.8-0.85-4.77-3.15-5.4-5.94 -0.97 1.27-1.94 2.55-2.91 3.83 9.26-0.13 16.29-15 9.42-21.68 -3.17-3.09-2.86-6.47-0.66-9.84 1.33-2.05 3.43-3.44 3.11-6.09 -0.75-6.14-9.19-8.83-14.2-6.42 1.22 0.16 2.44 0.32 3.66 0.47 -4.09-5.16-4.01-12.52-8.13-17.44 -3.61-4.31-9.13-2.92-12.62 0.52 1.58 0.2 3.17 0.41 4.75 0.61 -4.69-7.56-15.57-20.2-25.92-14.4 -1.75 0.98-1.91 3.35-0.61 4.75 5.47 5.89 9.38 14.29 12.63 21.56 1.74-1.02 3.48-2.03 5.22-3.05 -4.86-9.83-17.55-26.67-30.34-17.21 -2.13 1.58-1.89 4.61 0.72 5.53 2.27 0.8 4.58 6.98 5.62 8.94 1.91 3.6 3.65 7.29 5.67 10.83 1.74-1.02 3.48-2.03 5.22-3.05 -3.13-4.95-8.04-11.23-14.75-9.93 -3.22 0.62-6.58 3.03-7.57 6.28 -0.31 1.03 0.03 2.19 0.78 2.94C4.6 55.48 8.32 62.21 8.07 67c-0.28 5.48 1.97 11.44 3.8 16.5 0.34 0.95 0.72 1.88 1.1 2.82 0.21 0.5 0.42 1 0.64 1.5 0.42 0.96 0.41 0.91 0-0.15 -0.92 2.93-1.4 6.05-1.77 9.09 -0.63 5.13-1.31 11.03 1.02 15.84 1.58-1.22 3.17-2.44 4.75-3.66 -3.87-4.46-10.32-2.75-12.01 2.69 -1.62 5.23 0.35 10.46 2.23 15.34 0.31 0.81 0.6 1.62 0.82 2.47 2.16-2.25 2.47-2.97 0.93-2.16 -0.45 0.27-0.82 0.63-1.08 1.09 -1.4 2.38-1.06 5.62-0.02 8.04 2.74 6.4 9.21 11.1 15.21 14.24 0.51-1.88 1.02-3.76 1.53-5.63 -3.1 0.26-4.08 1.84-6.17 3.91 -1.1 1.09-1.26 3.22 0 4.28 9.23 7.78 23.03 13.89 35.39 11.5 -1.14-0.46-2.28-0.93-3.41-1.39 1.42 2.12 2.96 4.09 4.63 6.02 1.01 1.17 3.27 1.2 4.28 0 1.42-1.69 3.72-5.5 6.06-5.94 -1.14-0.46-2.28-0.93-3.41-1.39 3.51 6.16 9.96 14.82 17.26 16.51 1.61 0.37 3.27-0.48 3.72-2.11 0.28-1.02 0.49-2.05 0.68-3.09 0.52-2.86 0.67-0.72-1.09-1.48 0.52 0.23 1.03 0.78 1.48 1.12 1.74 1.3 3.64 2.33 5.63 3.17 7.93 3.36 16.77 3.36 25.18 2.36 3.13-0.37 6.22-0.96 9.3-1.61 1.94-0.41 6.18 2.89 8.09 3.63 4.47 1.73 9.08 2.79 13.89 2.46 3.14-0.21 6.14-1.18 8.9-2.67 1.01-0.55 1.93-1.24 2.83-1.95 0.23-0.18 1.83-1.38 0.99-0.81 -1.38-0.36-2.76-0.72-4.14-1.08 4.72 9.02 12.3 2.06 17.91-1.6 -1.48-0.6-2.96-1.2-4.44-1.81 3.5 9.99 12.71 0.89 16.27-3.98 -1.74 0-3.48 0-5.22 0 0.53 1.22 1.24 2.28 2.02 3.36 0.94 1.31 2.64 2.01 4.14 1.09 4.69-2.9 8.14-7.05 8.77-12.68 0.27-2.37 0.07-4.65-0.34-6.99 -0.15-0.87-0.39-1.73-0.63-2.58 -0.63-2.25 0.31-0.4-1.14 1.29 2.54-2.93-1.72-7.23-4.28-4.28 -1.69 1.96-0.45 4.27 0.07 6.45 1.35 5.67-0.5 10.47-5.5 13.57 1.38 0.36 2.76 0.72 4.14 1.09 -0.77-1.08-1.48-2.14-2.02-3.36 -1-2.3-4.05-1.6-5.22 0 -0.63 0.86-1.34 1.66-2.05 2.45 -0.56 0.63-1.17 1.21-1.78 1.78 -0.4 0.39-0.83 0.72-1.31 1 -0.69 0.33-0.71 0.39-0.08 0.19 -0.61-1.75-2.71-2.94-4.44-1.81 -2.32 1.52-7.59 7.67-9.63 3.77 -0.73-1.39-2.82-1.98-4.14-1.08 -4.52 3.09-7.96 5.01-13.78 4.58 -3.04-0.22-6.14-1.36-8.91-2.55 -2.35-1.01-5.31-3.84-7.89-3.84 -3.06 0-6.52 1.33-9.57 1.81 -3.08 0.48-6.2 0.66-9.32 0.71 -6.51 0.1-13.12-1.11-18.56-4.83 -1.74-1.19-3.01-2.39-5.28-2.41 -4.35-0.05-4.54 6.12-5.33 9 1.24-0.7 2.48-1.41 3.72-2.11 -5.61-1.3-10.96-9.02-13.64-13.73 -0.71-1.25-2.08-1.64-3.41-1.39 -3.76 0.7-6.46 4.79-8.72 7.49 1.43 0 2.85 0 4.28 0 -1.33-1.53-2.56-3.11-3.69-4.79 -0.81-1.2-2-1.66-3.41-1.39 -10.05 1.95-22.11-3.7-29.51-9.94 0 1.43 0 2.85 0 4.28 0.31-0.3 1.51-2.1 1.89-2.13 2.78-0.23 4.4-4.13 1.53-5.63 -4.5-2.35-14.91-8.44-12.72-14.73 -0.7 0.7-1.41 1.41-2.11 2.11 3.76-0.75 2.68-4.95 1.75-7.44 -0.89-2.36-1.78-4.68-2.36-7.14 -0.35-1.45-0.48-7.91 2.04-5.01 2.38 2.75 6.16-0.74 4.75-3.66 -2.24-4.63-0.4-12.3 0.56-17.04 0.42-2.06 1.76-4.44 0.79-6.47 -1.16-2.41-2.03-4.94-2.86-7.47 -0.9-2.71-1.61-5.48-2.14-8.29 -0.45-2.36 0.49-4.99-0.38-7.15 -2.21-5.52-4.61-11.36-8.86-15.65 0.26 0.98 0.52 1.96 0.78 2.94 0.06-0.21 1.59-1.6 2.68-1.93 3.68-1.12 7.13 4.72 8.59 7.02 2.08 3.28 7.17 0.35 5.22-3.05 -2.64-4.6-4.85-9.42-7.43-14.05 -1.75-3.15-3.86-7.22-7.48-8.5 0.24 1.84 0.48 3.68 0.72 5.53C17.86 28.31 27 43.75 30.32 50.46c1.75 3.54 6.78 0.44 5.22-3.05 -3.48-7.78-7.71-16.47-13.57-22.78 -0.2 1.58-0.41 3.17-0.61 4.75 6.71-3.76 15.04 8.02 17.65 12.23 1.03 1.66 3.33 2.01 4.75 0.61 4.48-4.42 6.09 4.72 7.25 7.71 1.28 3.29 2.76 6.44 4.96 9.21 0.88 1.11 2.54 1.01 3.66 0.47 1.13-0.54 5.68 0.54 4.87 1.56 -0.9 1.12-1.77 2.26-2.55 3.47 -2.02 3.1-2.5 6.65-1.67 10.2 0.91 3.9 5.14 5.56 4.51 9.55 -0.49 3.13-2.08 7.94-5.87 7.99 -2.03 0.03-3.35 1.9-2.91 3.83 0.79 3.51 2.9 6.2 5.75 8.31 1.99 1.47 4.58 2.17 6.97 2.58 1.53 0.26 3.07 0.31 4.61 0.32 0.81 0.01 5.76-0.52 5.14-0.89 1.23 0.75 2.63 0.4 3.66-0.47 2.38-2 5.42-2.88 8.08-4.42 2.65-1.53 5.09-3.39 7.43-5.35 1.38-1.15 0.94-3.07 0-4.28 -2.37-3.05-2.18-7.19-1.9-10.83 -1.88 0.51-3.75 1.02-5.63 1.53 0.59 1.15 1.4 2.1 2.19 3.11 2.28 2.88 6.09-0.78 4.75-3.66 -0.13-0.27-0.25-0.54-0.38-0.81 -0.87 1.52-1.74 3.03-2.61 4.55 3.92 0.12 8.21-0.56 9.36-4.9 1.36-5.12-3.34-8.93-6.68-11.64 -3.35-2.71-8-6.04-12.48-3.72 -3.75 1.94-6.25 5.68-7.29 9.67 1.68-0.44 3.37-0.89 5.05-1.33 -2.12-2.48-3.9-6.05-4.62-9.47 -2.12-9.98 12.06-13.78 19.1-10.6 1.72 0.78 3.92 0.24 4.44-1.81 1.13-4.45 2.9-8.39 6.1-11.75 2.19-2.31 3.12-3.38 4.51-6.19 2.8-5.67 6.4-10.92 10.74-15.53 5.85-6.22 13.21-10.45 21.58-12.15 2.33-0.47 9.8-0.79 4.32 2.32 -3.02 1.72-8.24 1.39-10.07 4.91 -0.69 1.33-0.48 3.45 1.09 4.14 3.84 1.68 8.9-0.97 12.81-1.63 2.55-0.43 5.4-0.46 7.7 0.82 2.4 1.34 1.05 3.02-0.86 3.62 -2.19 0.7-4.32-0.36-6.46-0.59 -3.07-0.33-11.66 0.56-7.82 5.81 3.72 5.09 11.66 3.69 16.89 3.32 2.49-0.18 3.5 2.6 3.13 4.61 -1 5.56-8.31 0.61-10.16-1.45 -3.02-3.37-10.19-4.45-11.17 1.27 -0.92 5.39 4.87 7.27 8.83 8.48 1.87 0.57 3.19 2.01 4.19 3.61 1.81 2.89-2.71 5.9-5.11 3.98 -2.86-2.28-3.58-5.23-7.16-6.82 -2.97-1.32-6.29 2.19-3.66 4.75 3.56 3.46 3.02 7.08 3.08 11.55 0.06 4.6 0.51 9.19 1.33 13.72 1.81 10.1 6.72 19.56 15.63 25.03 -0.46-1.14-0.93-2.28-1.39-3.41 0.01-0.02-3.82-0.5-4.14-0.54 -2.22-0.3-3.84 2.81-2.61 4.55 1.34 1.89-0.7-0.09 1.25-0.66 -2.78 0.81-7.8-1.84-10.26-2.77 -2.39-0.9-4.96 2.35-3.41 4.44 0.82 1.11 1.33 2.71 2.57 3.44 1.91 1.12 4.85 1.31 6.98 2.02 4.59 1.52 8.63 4.25 11.89 7.78 2.1 2.28 5.8-0.1 5.05-2.94 -1.16-4.43-2.33-8.87-3.49-13.3 -1.24 1.24-2.48 2.48-3.72 3.72 14.2 3.23 24.27 16.51 28.12 29.8 0.46-1.14 0.93-2.28 1.39-3.41 -0.17 0.08-0.34 0.15-0.51 0.23 1.22 0.16 2.44 0.32 3.66 0.47 -0.33-0.24-0.56-0.55-0.69-0.93 -1.76-3.55-6.73-0.44-5.22 3.05 2.3 5.33 4.2 13.71 1.69 20.14C186.13 153.21 191.98 154.77 193.38 151.18z"/><path fill="#FFFFFF" d="M51.74 161.63c0 0-16.8 1.01-30.57-11.08 1.34-1.01 2.01-3.36 4.03-3.02 -6.04-3.02-17.13-11.42-14.11-18.14 3.02 0-8.06-14.44-0.33-20.49 2.69 0 4.03 0.67 4.7 1.68 -2.35-4.03-0.67-17.47 1.34-23.51 -2.01-4.03-7.05-18.14-5.37-22.84 -1.34-3.36-4.7-11.76-8.4-15.12 0.34-1.68 7.73-10.75 16.79 4.37 -3.36-5.71-9.74-20.49-13.1-21.16 3.02-2.35 15.12-7.05 26.2 16.12 -3.36-7.72-10.41-19.48-13.1-22.17 2.69-1.68 11.42-2.35 20.83 11.76 3.7 6.05 19.82 31.24 19.82 31.24s3.69 11.08 6.72 11.42c-1.34 3.02-2.69 10.08-8.4 12.43 -0.33 2.02 1.68 13.77 20.83 10.07C88.35 107.89 95.07 153.91 51.74 161.63z"/><path fill="none" d="M51.74 161.63c0 0-16.8 1.01-30.57-11.08 1.34-1.01 2.01-3.36 4.03-3.02 -6.04-3.02-17.13-11.42-14.11-18.14 3.02 0-8.06-14.44-0.33-20.49 2.69 0 4.03 0.67 4.7 1.68 -2.35-4.03-0.67-17.47 1.34-23.51 -2.01-4.03-7.05-18.14-5.37-22.84 -1.34-3.36-4.7-11.76-8.4-15.12 0.34-1.68 7.73-10.75 16.79 4.37 -3.36-5.71-9.74-20.49-13.1-21.16 3.02-2.35 15.12-7.05 26.2 16.12 -3.36-7.72-10.41-19.48-13.1-22.17 2.69-1.68 11.42-2.35 20.83 11.76 3.7 6.05 19.82 31.24 19.82 31.24s3.69 11.08 6.72 11.42c-1.34 3.02-2.69 10.08-8.4 12.43 -0.33 2.02 1.68 13.77 20.83 10.07C88.35 107.89 95.07 153.91 51.74 161.63z"/><path fill="#201400" d="M51.74 160.87c-3.32 0.17-6.68-0.33-9.92-0.98 -3.82-0.77-7.49-2.12-11-3.8 -1.84-0.88-13.05-7.2-5.62-7.82 0.7-0.06 1.1-1.03 0.38-1.41 -4.66-2.43-9.01-5.64-12.21-9.85 -0.95-1.25-3.48-5.96-1.63-7.04 0.37-0.21 0.63-0.64 0.63-1.07 0.01-2.28-1.41-4.69-2.17-6.78 -0.76-2.12-1.31-4.28-1.47-6.53 -0.24-3.32 2.62-8.61 6.2-4.49 0.6 0.69 1.54-0.19 1.19-0.92 -1.62-3.34-1.1-7.7-0.8-11.28 0.21-2.52 0.64-5.03 1.14-7.51 0.27-1.33 1.12-3.01 1.12-4.34 0-2.06-2.12-5.23-2.82-7.24 -1.38-3.99-2.56-8.17-2.87-12.39 -0.22-2.9 0.3-3.53-0.91-6.34 -1.58-3.69-3.24-7.68-5.83-10.79 -0.88-1.06-1.54-1.04-0.68-2.14 0.76-0.98 1.81-1.69 2.94-2.16 5.16-2.15 9.56 4.35 11.79 7.86 0.52 0.82 1.79 0.09 1.31-0.76 -2.64-4.6-4.85-9.42-7.42-14.05 -1.38-2.48-3.21-6.42-6.13-7.45 0.06 0.46 0.12 0.92 0.18 1.38 10.85-8.02 21.25 7.91 25.17 15.85 0.44 0.88 1.7 0.11 1.31-0.76 -2.27-5.1-4.98-9.98-7.87-14.75 -1.2-1.97-2.47-3.89-3.83-5.75 -0.35-0.47-0.72-0.93-1.1-1.38 -0.43 0.66-0.29 0.76 0.42 0.3 0.46-0.14 0.92-0.24 1.4-0.29 9.87-1.25 16.48 10.79 20.89 17.79 4.59 7.29 9.23 14.54 13.87 21.8 2.81 4.39 4.06 9.4 7.12 13.71 0.45 0.64 1.21 1.53 2.01 1.77 -0.5-0.15-2.26 4.99-2.5 5.51 -1.34 2.87-3.68 3.77-5.72 5.81 -0.38 0.38-0.26 1.14-0.22 1.61 0.39 4.79 4.27 8.15 8.55 9.62 1.8 0.62 3.76 0.76 5.64 0.84 1.27 0.06 6.31-1.22 7.28-0.65 1.82 1.07 2.86 3.56 3.6 5.43 2.25 5.69 2.55 12.14 1.92 18.16 -1.91 18.37-16.04 30.01-33.49 33.32 -0.96 0.18-0.55 1.64 0.4 1.46 12.44-2.36 23.59-8.44 29.94-19.7 4.75-8.41 5.89-18.74 4.2-28.15 -0.58-3.24-1.63-6.53-3.42-9.31 -2.89-4.48-6.87-1.88-11.66-2.1 -5.29-0.24-11.01-3.48-11.48-9.23 -0.03-0.35 3.85-3.33 4.57-4.28 1.9-2.53 2.65-5.8 3.83-8.69 0.16-0.39-0.17-0.82-0.53-0.93 -4.21-1.26-5.31-9.59-7.63-13.21 -4.09-6.4-8.18-12.81-12.25-19.23 -4.33-6.82-8.19-14.17-14.65-19.25 -3.51-2.76-9.12-5.05-13.41-2.65 -0.44 0.25-0.48 0.84-0.15 1.19 5.61 6.04 9.65 14.56 12.98 22.02 0.44-0.25 0.87-0.51 1.31-0.76C29.3 39.39 17.99 23.05 6.34 31.66c-0.53 0.39-0.47 1.15 0.18 1.38 3.22 1.13 5.51 7.23 6.97 9.98 1.91 3.6 3.65 7.29 5.68 10.83 0.44-0.25 0.87-0.51 1.31-0.76 -2.47-3.91-6.67-9.95-12.19-8.88 -2.43 0.47-5.22 2.18-5.99 4.7 -0.08 0.26 0.01 0.55 0.2 0.74 3.92 3.96 8.13 11.23 7.84 16.86 -0.27 5.29 1.96 11.02 3.71 15.9 0.47 1.3 2.17 3.97 1.74 5.38 -0.85 2.74-1.35 5.65-1.69 8.49 -0.57 4.63-1.41 10.31 0.71 14.7 0.4-0.31 0.79-0.61 1.19-0.92 -2.74-3.15-6.99-2.26-8.22 1.69 -1.49 4.81 0.51 9.66 2.23 14.13 0.48 1.25 1.02 2.14 0.44 3.14 -0.95 1.63-0.73 4.1-0.02 5.75 2.61 6.08 8.7 10.45 14.4 13.42 0.13-0.47 0.25-0.94 0.38-1.41 -2.33 0.19-2.97 1.66-4.56 3.25 -0.27 0.27-0.31 0.8 0 1.07 8.43 7.11 19.89 11.89 31.1 11.31C52.71 162.33 52.71 160.82 51.74 160.87z"/><path fill="#FFFFFF" d="M38.97 43.4c0 0 5.71-11.76 12.1-3.02 1.68 5.71 5.04 14.78 7.72 16.79 -1.01 1.68-6.72 6.38-11.08 4.7C43.34 57.84 38.97 52.47 38.97 43.4z"/><path fill="none" d="M38.97 43.4c0 0 5.71-11.76 12.1-3.02 1.68 5.71 5.04 14.78 7.72 16.79 -1.01 1.68-6.72 6.38-11.08 4.7C43.34 57.84 38.97 52.47 38.97 43.4z"/><path fill="#201400" d="M39.62 43.78c1.35-2.71 3.92-6.38 7.38-5.76 3.52 0.63 4.22 5.48 5.19 8.2 0.85 2.39 1.84 4.73 2.95 7.02 0.38 0.78 2.78 3.85 2.33 4.35 -1.92 2.15-7.24 5.62-9.96 3.06 -4.97-4.68-7.6-10.42-7.78-17.25 -0.03-0.97-1.54-0.97-1.51 0 0.2 7.34 3.04 13.22 8.23 18.32 3.7 3.65 10.62-0.85 13-4.17 0.19-0.26 0.12-0.71-0.12-0.92 -3.52-3.13-5.03-8.88-6.49-13.18 -1.09-3.2-1.98-5.63-5.42-6.89 -3.94-1.45-7.62 3.5-9.09 6.45C37.89 43.88 39.19 44.65 39.62 43.78z"/><path fill="#FFFFFF" d="M38.3 81.35c0 0 3.02-11.42 13.44-6.04 -0.67-4.37-2.02-15.11 7.05-19.15 5.38-0.67 9.07 2.01 9.07 5.04 -2.01 3.02-10.08 9.74-0.34 18.47 1.68 2.35-1.34 18.14-10.75 14.78"/><path fill="none" d="M38.3 81.35c0 0 3.02-11.42 13.44-6.04 -0.67-4.37-2.02-15.11 7.05-19.15 5.38-0.67 9.07 2.01 9.07 5.04 -2.01 3.02-10.08 9.74-0.34 18.47 1.68 2.35-1.34 18.14-10.75 14.78"/><path fill="#201400" d="M39.03 81.55c1.65-5.9 6.71-8.2 12.33-5.59 0.64 0.3 1.21-0.18 1.11-0.85 -0.87-5.81-0.82-12.05 3.7-16.42 3.58-3.45 13.44-1.02 9.3 4.38 -1.43 1.86-2.55 3.73-3.18 6 -0.55 1.97-0.09 3.98 0.61 5.83 1 2.64 4.25 4.33 4.31 7.14 0.12 5.62-3.55 13.65-10.23 11.69 -0.94-0.28-1.33 1.18-0.4 1.46 6.8 1.99 10.5-4.13 11.78-9.96 0.41-1.84 0.75-4.2-0.18-5.93 -1.96-3.65-5.2-5.02-4.43-9.83 0.41-2.54 2.33-4.78 3.89-6.71 1.56-1.95 0.78-3.65-0.88-5.36 -2.75-2.84-7.54-2.55-10.56-0.63 -6.18 3.92-6.12 12.39-5.18 18.74 0.37-0.28 0.74-0.57 1.11-0.85 -6.47-3-12.58-0.54-14.55 6.5C37.31 82.09 38.77 82.49 39.03 81.55L39.03 81.55z"/><path fill="#FFFFFF" d="M79.95 107.89c0 0-18.48 2.35-25.53 18.14 2.35-0.33 3.69 0.34 5.04 0.67 -2.35 2.35-20.82 18.81-1.68 39.97 3.36-4.03 5.71-6.72 7.39-6.72 2.35 4.37 10.75 14.45 15.45 15.12 1.01-3.02 0.67-8.4 4.03-6.38 3.7 2.69 18.14 17.13 71.88-6.38C174.67 150.54 194.16 71.95 79.95 107.89z"/><path fill="none" d="M79.95 107.89c0 0-18.48 2.35-25.53 18.14 2.35-0.33 3.69 0.34 5.04 0.67 -2.35 2.35-20.82 18.81-1.68 39.97 3.36-4.03 5.71-6.72 7.39-6.72 2.35 4.37 10.75 14.45 15.45 15.12 1.01-3.02 0.67-8.4 4.03-6.38 3.7 2.69 18.14 17.13 71.88-6.38C174.67 150.54 194.16 71.95 79.95 107.89z"/><path fill="#151210" d="M79.75 107.16c-10.95 1.48-21.23 8.51-25.98 18.48 -0.23 0.48 0.04 1.17 0.65 1.14 1.72-0.09 3.19 0.17 4.84 0.65 -0.11-0.42-0.22-0.84-0.33-1.26 -4.04 3.98-7.34 8.37-9.27 13.76 -3.56 9.98 1.06 19.77 7.59 27.28 0.25 0.29 0.82 0.3 1.07 0 1.08-1.29 5.55-7.86 7.08-5.41 1.26 2.02 2.81 3.89 4.34 5.7 2.74 3.24 6.36 7.3 10.68 8.3 0.4 0.09 0.82-0.12 0.93-0.53 0.53-1.91 0.84-7.54 3.84-5.23 1.04 0.8 2.13 1.53 3.27 2.19 3.63 2.08 7.81 3.21 11.94 3.7 7.69 0.91 15.42-0.03 22.96-1.59 5.62-1.16 11.12-2.84 16.54-4.68 5.54-1.88 12.72-3.67 17.55-7.05 11.99-8.4 16.09-28.86 12.38-42.16 -3.08-11.06-12.4-17.89-23.12-20.75C125.08 93.91 100.37 100.73 79.75 107.16c-0.93 0.29-0.53 1.75 0.4 1.46 19.67-6.13 41.56-11.87 62.3-8.31 10.8 1.85 20.9 7.52 25.09 18.07 3.3 8.31 2.4 17.84-0.29 26.18 -1.24 3.85-3 7.54-5.24 10.9 -3.39 5.11-6.95 6.73-12.76 9.09 -16.77 6.81-40.31 15.39-58.21 7.3 -2.44-1.1-5.29-4.29-7.99-4.32 -3.75-0.04-0.68 7.88-4.37 6 -5.25-2.67-10-8.97-12.85-13.96 -0.18-0.31-0.52-0.41-0.85-0.35 -0.97 0.18-1.77 0.58-2.52 1.26 -3.27 2.94-3.93 6.35-7.49 1.45 -3.9-5.37-5.73-11.91-4.66-18.48 1.05-6.43 5.18-11.78 9.69-16.23 0.41-0.4 0.21-1.11-0.33-1.26 -1.84-0.53-3.3-0.8-5.24-0.7 0.22 0.38 0.44 0.76 0.65 1.14 4.61-9.66 14.48-16.36 25.08-17.79C81.11 108.49 80.7 107.03 79.75 107.16z"/><path fill="#FFFFFF" d="M170.98 125.02c0 15.58-8.34 28.22-18.64 28.22 -10.29 0-18.64-12.63-18.64-28.22 0-15.58 8.35-28.22 18.64-28.22C162.63 96.8 170.98 109.43 170.98 125.02z"/><path fill="#B52B2F" d="M106.49 37.69c0 0 11.51-32.9 40.67-35.17 7.38-0.53 9.87 7.09-1.5 9.79 -3.56 0.92-7.2 2.99-3.2 2.57 4.27-1.1 17.76-5.86 21.29 1.95 1.92 4.21-3.49 8.26-11.35 5.73 -2.99-0.44-6.86-0.13-5.21 1.26 1.2 1.13 5.94 3.33 12.08 2.13 9.02-2.39 11.3 9.99 4.49 12.43 -4.27 1.1-8.24-0.46-11.45-4.41 -2.69-3.1-7.16-2.48-5.89 0.99 1.09 2.76 4.91 3.14 6.5 3.72 4.91 1.39 10.44 9 3.99 12.85 -5.93 3.2-8.04 0.02-10.9-4.02 -1.46-2.43-6.77-4.78-10.21-0.48C131.1 48.91 110.11 49.12 106.49 37.69z"/><path fill="none" d="M106.49 37.69c0 0 11.51-32.9 40.67-35.17 7.38-0.53 9.87 7.09-1.5 9.79 -3.56 0.92-7.2 2.99-3.2 2.57 4.27-1.1 17.76-5.86 21.29 1.95 1.92 4.21-3.49 8.26-11.35 5.73 -2.99-0.44-6.86-0.13-5.21 1.26 1.2 1.13 5.94 3.33 12.08 2.13 9.02-2.39 11.3 9.99 4.49 12.43 -4.27 1.1-8.24-0.46-11.45-4.41 -2.69-3.1-7.16-2.48-5.89 0.99 1.09 2.76 4.91 3.14 6.5 3.72 4.91 1.39 10.44 9 3.99 12.85 -5.93 3.2-8.04 0.02-10.9-4.02 -1.46-2.43-6.77-4.78-10.21-0.48C131.1 48.91 110.11 49.12 106.49 37.69z"/><path fill="#151210" d="M107.06 37.84c2.98-8.42 8.38-16.33 14.65-22.6 5.97-5.98 13.45-10.04 21.74-11.67 2.55-0.5 5.31-0.89 7.73 0.28 3.79 1.84 0.35 5.32-1.77 6.52 -2.36 1.34-7.77 1.3-9.2 4.04 -0.13 0.26-0.09 0.68 0.21 0.81 1.84 0.81 4.07-0.3 5.88-0.79 3.94-1.06 8.07-1.85 12.13-1.06 3.85 0.75 7.22 5.4 3.01 8.34 -2.8 1.95-6.09 0.58-9.04 0.26 -1.38-0.15-5.59-0.93-6.17 1.17 -0.31 1.12 2.14 2.2 2.78 2.45 4.33 1.68 7.99 0.97 12.46 0.66 6.27-0.44 7.21 8.44 2.83 11.26 -4.04 2.6-9.07-1.15-11.57-3.95 -0.84-0.94-2.12-1.91-3.42-2.06 -5.52-0.64-3.6 5.03-0.12 6.66 4.41 2.05 9.32 2.59 10.05 8.65 -0.87 3.44-3.01 5.25-6.42 5.45 -2.49 0.33-4.32-2.33-5.53-3.96 -0.94-1.27-1.62-2.22-2.91-3.13 -1.76-1.24-4.98-1.63-6.84-0.37 -2.98 2.03-4.98 2.51-8.68 2.62 -7.75 0.22-18.72-1.6-21.77-9.87 -0.26-0.71-1.4-0.4-1.14 0.31 2.56 6.94 10.09 9.65 16.92 10.42 3.4 0.38 6.91 0.54 10.3-0.01 0.92-0.15 2.11-0.24 2.94-0.72 3.06-1.79 2.33-2.76 5.92-2.11 2.4 0.44 3.68 2.69 5 4.46 1.64 2.22 4.2 4.29 7.17 3.35 3.74-1.18 6.62-3.29 6.11-7.5 -0.39-3.23-3.4-5.83-6.09-7.22 -1.67-0.86-3.65-1.04-5.37-1.84 1.02-0.76 2.04-1.53 3.06-2.29 0.67 0.84 1.42 1.6 2.25 2.28 0.71 0.65 1.81 1.36 2.71 1.7 6.46 2.5 13.07-1.2 11.06-8.57 -0.69-2.53-2.85-4.11-5.29-4.65 -2.04-0.45-4.92 0.47-6.84 0.56 -1.84 0.09-3.67-0.35-5.42-0.87 -2.1-0.28-2.29-0.9-0.58-1.87 1.4-0.02 2.77 0.18 4.12 0.61 4.98 1.34 15.29-2.8 9.2-8.86 -5.24-5.22-14.06-2.28-20.2-0.56 -3.12 0.87 2.48-1.14 2.94-1.28 1.03-0.31 2.03-0.51 3.02-0.95 1.56-0.7 3.51-1.6 4.42-3.17 1.15-1.99 0.94-3.83-0.76-5.42 -2.41-2.25-6.51-1.35-9.36-0.89 -5.16 0.83-10.04 2.97-14.45 5.71 -10.37 6.43-18.7 17.91-22.76 29.38C105.66 38.25 106.8 38.56 107.06 37.84z"/><path fill="#FFFFFF" stroke="#201400" stroke-width="1.58" d="M97.08 57.5c0 0 0.34-28.21 26.54-25.19 13.43 2.69 15.79 10.42 15.79 10.42s7.05 3.69 7.05 10.07c0 6.72-1.34 32.25 15.45 41.99 -0.67 2.35-2.35 2.35-7.05 1.68 1.01 1.35 4.03 7.39-12.43 1.01 3.36 3.7 7.39 19.82-6.71 11.09 -0.34 2.69-1.68 11.76-12.09 2.69 -0.67 1.01 2.69 16.12-12.43 5.04 -1.01 1.68-12.76 11.09-14.11 0.67 -2.01 0.67-7.39-1.35-6.38-5.71 -3.02 3.36-13.1 9.74-9.74-4.03 -2.02 1.68-6.72-2.69 6.04-7.73C117.57 82.36 95.74 64.56 97.08 57.5z"/><path fill="#AC2C33" stroke="#201400" stroke-width="1.05" d="M98.09 91.43c0 0-6.72 5.37-15.45 6.05 -10.08 1.35-5.04 12.09 6.72 6.05 4.03-3.02 4.37-7.39 12.76-8.73 2.35-2.02 7.39-3.02 9.07 4.7 0.67 10.41 9.07 15.79 13.44 13.1 6.05-3.36 3.69-11.42-5.03-19.48 -4.71-7.39-2.02-11.42-0.67-15.12C115.89 79.67 108.84 92.43 98.09 91.43z"/><path fill="#201400" stroke="#201400" stroke-width="1.01" d="M93.72 67.92c0 0 15.12 15.45 0.34 14.44 2.02 5.38 13.1 11.42 21.84 1.35C124.96 72.28 122.61 65.56 93.72 67.92z"/><path fill="#DFBA25" d="M92.72 80.68c0 0 4.03 9.07 15.11 5.04 8.73-4.37 14.78-18.47 14.78-18.47 0.27 0.52 0 15.11-9.74 25.19C106.49 99.49 90.7 99.83 92.72 80.68z"/><path fill="none" d="M92.72 80.68c0 0 4.03 9.07 15.11 5.04 8.73-4.37 14.78-18.47 14.78-18.47 0.27 0.52 0 15.11-9.74 25.19C106.49 99.49 90.7 99.83 92.72 80.68z"/><path fill="#201400" d="M92.06 81.06c2.93 6.27 9.98 7.31 15.97 5.39 7.06-2.26 12.49-12.51 15.23-18.82 -0.46-0.06-0.92-0.12-1.38-0.18 0.73 3.1-0.76 7.37-1.58 10.31 -1.66 5.91-5.04 12.35-10.11 16.02 -3.28 2.37-7.84 3.08-11.55 1.4 -5.36-2.43-5.59-9.51-5.17-14.49 0.08-0.97-1.43-0.96-1.51 0 -0.42 5.09-0.11 11.8 4.64 15 3.79 2.56 8.27 2.3 12.34 0.54 5.71-2.47 9.3-9.07 11.58-14.48 1.63-3.86 3.85-10.35 2.83-14.7 -0.14-0.59-1.11-0.79-1.38-0.18 -2.35 5.4-5.64 10.53-9.77 14.72 -5.25 5.32-15.22 6.42-18.82-1.29C92.96 79.42 91.65 80.18 92.06 81.06z"/><path fill="none" stroke="#100E0D" stroke-width="1.01" d="M132.35 53.14c0 5.94-4.29 10.75-9.57 10.75 -5.29 0-9.57-4.81-9.57-10.75 0-5.94 4.29-10.75 9.57-10.75C128.06 42.39 132.35 47.2 132.35 53.14z"/><ellipse fill="#201400" cx="124.96" cy="57.67" rx="3.7" ry="3.87"/><path fill="#FFFFFF" d="M127.98 56.58c0 1.07-0.83 1.93-1.85 1.93 -1.02 0-1.85-0.86-1.85-1.93 0-1.07 0.83-1.93 1.85-1.93C127.16 54.65 127.98 55.51 127.98 56.58z"/><path fill="#DFBA25" d="M79.89 75.6c0 0-15.72-18.1 5.29-25.82 19.96-5.71 25.4 21.34 38.44 17.9 0 0-3.36 4.94-7.05 6.89 -16.93 9.64-22.22-9.64-30.68-6.88C85.88 67.68 80.94 70.09 79.89 75.6z"/><path fill="none" d="M79.89 75.6c0 0-15.72-18.1 5.29-25.82 19.96-5.71 25.4 21.34 38.44 17.9 0 0-3.36 4.94-7.05 6.89 -16.93 9.64-22.22-9.64-30.68-6.88C85.88 67.68 80.94 70.09 79.89 75.6z"/><path fill="#201400" d="M80.42 75.07c-2.82-3.29-4.95-7.56-5.39-11.88 -1.05-10.21 12-15.03 20.18-12.73 10.53 2.96 16.51 20.63 28.61 17.96 -0.28-0.37-0.57-0.74-0.85-1.11 -3.78 5.42-9.62 9.48-16.44 9.19 -5.11-0.22-9.12-4.3-12.92-7.23 -6.35-4.9-12.5-1.36-14.45 6.14 -0.24 0.94 1.21 1.35 1.46 0.4 1.45-5.61 5.71-9.47 11.02-6.1 3.52 2.24 6.29 5.28 10.13 7.08 8.48 3.96 17.68-1.8 22.5-8.71 0.41-0.58-0.26-1.24-0.85-1.11 -7.71 1.71-13.38-7.3-18.2-11.88 -5.37-5.1-11.65-7.81-19.08-6.31 -7.32 1.47-13.32 7.61-12.53 15.24 0.45 4.39 2.91 8.83 5.75 12.14C79.99 76.88 81.05 75.8 80.42 75.07z"/><path fill="#FFFFFF" stroke="#201400" stroke-width="1.21" d="M132.69 66.91c0 0-10.75-10.41-18.48-3.36 -4.37 4.37 2.02 10.08 8.06 5.71 2.35 1.01 4.03 1.68 4.03 3.7"/><path fill="#FFFFFF" d="M115.04 38.49c0.97-2.91 6.66-16.29 13.15-2.51"/><path fill="none" d="M115.04 38.49c0.97-2.91 6.66-16.29 13.15-2.51"/><path fill="#201400" d="M115.77 38.69c0.77-2.23 1.86-4.45 3.39-6.26 3.56-4.24 6.73 0.57 8.39 3.93 0.43 0.88 1.73 0.11 1.31-0.76 -1.65-3.35-4.69-8.27-9.02-5.76 -2.83 1.64-4.5 5.5-5.51 8.45C114 39.21 115.46 39.61 115.77 38.69L115.77 38.69z"/><path fill="#FFFFFF" d="M159.9 96.8c0 0 22.84 5.04 30.23 31.91 -0.67 1.01-1.68-1.34-1.68-1.34s6.04 13.44 2.02 22.51c-0.67 0 6.38 13.43-6.04 20.49 -1.34-1.68-2.02-3.36-2.02-3.36s-8.73 12.09-10.75 4.7c-2.35 1.34-10.41 10.41-13.77 2.69 -1.68 1.01-14.78 16.8-46.69-12.77 -1.68 1.01-22.5 2.02-14.78-16.12 -2.01-1.68-7.39-6.72-2.69-11.42 -1.01-2.35-3.36-14.44 7.39-15.45 -1.01-1.34-5.04-9.4 2.69-7.05 7.05 1.01 13.1 0 15.45-1.34 3.02 1.68 11.09 6.38 14.11 12.09 2.02 1.68 7.06 4.7 7.06 7.39 2.35 0 6.04-2.02 10.75-0.34 2.69-0.33 8.73-7.39 17.46 0.67"/><path fill="none" d="M159.9 96.8c0 0 22.84 5.04 30.23 31.91 -0.67 1.01-1.68-1.34-1.68-1.34s6.04 13.44 2.02 22.51c-0.67 0 6.38 13.43-6.04 20.49 -1.34-1.68-2.02-3.36-2.02-3.36s-8.73 12.09-10.75 4.7c-2.35 1.34-10.41 10.41-13.77 2.69 -1.68 1.01-14.78 16.8-46.69-12.77 -1.68 1.01-22.5 2.02-14.78-16.12 -2.01-1.68-7.39-6.72-2.69-11.42 -1.01-2.35-3.36-14.44 7.39-15.45 -1.01-1.34-5.04-9.4 2.69-7.05 7.05 1.01 13.1 0 15.45-1.34 3.02 1.68 11.09 6.38 14.11 12.09 2.02 1.68 7.06 4.7 7.06 7.39 2.35 0 6.04-2.02 10.75-0.34 2.69-0.33 8.73-7.39 17.46 0.67"/><path fill="#151210" d="M159.7 97.53c4.22 0.96 8.22 3.17 11.79 5.55 8.96 5.97 13.9 16.14 17.61 23.91 -0.42-0.89-1.69-0.11-1.3 0.76 1.33 3.02 2.18 6.25 2.81 9.48 0.64 3.32 0.65 6.68-0.03 9.99 -0.18 0.88-0.94 1.95-0.9 2.85 0.13 2.47 1.28 4.86 1.42 7.4 0.19 3.58-5.03 16.03-8.04 9.15 -0.25-0.57-1.01-0.4-1.3 0 -1.3 1.78-7.62 9.88-9.37 4.89 -0.15-0.44-0.68-0.73-1.11-0.45 -3.36 2.19-9.42 9.3-12.74 2.96 -0.18-0.35-0.7-0.49-1.03-0.27 -3.62 2.39-6.39 4.48-10.96 4.93 -13.18 1.31-25.86-9.41-34.81-17.58 -0.27-0.25-0.59-0.27-0.92-0.12 -2.46 1.17-6.62 0.23-9.03-0.48 -7.17-2.09-6.98-8.91-4.63-14.79 0.09-0.23-0.01-0.58-0.19-0.73 -3.02-2.6-6.18-6.11-2.69-10.35 0.16-0.2 0.3-0.47 0.2-0.73 -2.4-6.24-0.45-13.49 6.86-14.52 0.47-0.07 0.7-0.74 0.45-1.11 -0.63-0.93-1.08-1.94-1.47-3 -1.09-3 1.09-3.2 3.51-2.92 4.95 0.59 10.17 0.74 14.92-1.01 2.58-0.95 9.29 5.78 10.8 7.23 1.57 1.5 2.39 3.6 4.07 4.92 2.16 1.7 5.51 3.44 6.09 6.45 0.06 0.31 0.42 0.58 0.73 0.56 1.99-0.18 3.91-0.73 5.9-0.97 2.15-0.26 4.02 1.09 6.07 0.27 6.21-2.48 9.68-4.28 15.71 0.81 0.74 0.63 1.81-0.44 1.07-1.07 -2.98-2.51-6.62-4.81-10.73-3.9 -1.67 0.37-3.14 0.97-4.65 1.75 -2.68 1.37-4.52 0.59-7.47 0.63 -1.07 0.02-4.93 1.38-5.42 0.44 -1.01-1.93-2.57-3.24-4.27-4.57 -4.21-3.31-7.13-7.76-11.58-10.94 -1.72-1.23-3.56-2.3-5.4-3.34 -0.9-0.5-2.41 0.67-3.27 0.91 -3.41 0.97-7.16 0.81-10.66 0.55 -1.28-0.09-4.56-1.36-5.97-0.28 -1.64 1.26-1.42 3.04-0.89 4.88 0.31 1.07 0.85 2.1 1.42 3.06 -0.83-1.4-3.74 0.36-4.67 1.16 -2.24 1.92-3.16 4.35-3.5 7.23 -0.31 2.67 1.1 5.64 0.01 7.79 -1.52 2.99-1.06 5.9 1.14 8.49 0.66 0.77 1.33 1.48 2.07 2.17 0.37 0.35-0.74 2.93-0.86 3.35 -0.46 1.62-0.68 3.55-0.4 5.22 0.91 5.42 5.74 8.02 10.85 8.56 1.95 0.21 3.93 0.26 5.86-0.12 1.25-0.24 3.02 2.39 4.14 3.35 2.53 2.17 5.2 4.18 7.94 6.08 10.38 7.21 24.42 12.26 35.15 3.26 -1.7 1.42 3.73 3.03 5.21 2.79 1.93-0.32 3.73-1.75 5.24-2.88 0.77-0.58 1.52-1.2 2.26-1.81 1.28-1.05 0.34-0.89 0.98 0.24 2.77 4.9 9.94-4.23 11.39-6.21 -0.43 0-0.87 0-1.3 0 0.53 1.22 1.24 2.28 2.02 3.36 0.23 0.33 0.66 0.5 1.03 0.27 7.77-4.81 8.9-12.32 6.5-20.58 -0.21-0.73-0.4 0.19-0.18-0.18 0.67-1.15 0.91-2.64 1.18-3.91 0.55-2.66 0.4-5.59-0.03-8.26 -0.61-3.8-1.6-7.57-3.16-11.1 -0.43 0.26-0.87 0.51-1.3 0.76 0.34 0.72 0.68 1.18 1.25 1.71 0.18 0.17 0.49 0.29 0.74 0.19 0.18-0.07 0.36-0.14 0.55-0.22 0.38-0.15 0.65-0.5 0.53-0.93 -4.21-14.51-15.29-28.91-30.76-32.44C159.15 95.86 158.75 97.31 159.7 97.53L159.7 97.53z"/><path fill="none" d="M151.16 129.38c0 0 11.08-2.69 15.79 9.74"/><path fill="#201400" d="M151.36 130.11c6.76-1.57 12.46 3.27 14.86 9.21 0.36 0.89 1.82 0.5 1.46-0.4 -2.72-6.74-9.07-12.04-16.72-10.27C150.01 128.88 150.41 130.33 151.36 130.11L151.36 130.11z"/><path fill="none" d="M27.89 129.72c0 0-7.72 1.01 2.69 8.06"/><path fill="#201400" d="M27.69 128.99c-1.18 0.16-2.58 0.77-3.1 1.91 -1.39 3.09 3.68 6.21 5.61 7.53 0.81 0.55 1.56-0.76 0.76-1.3 -0.85-0.59-6.28-3.99-4.91-5.76 0.45-0.58 1.34-0.82 2.04-0.92C29.05 130.32 28.64 128.86 27.69 128.99L27.69 128.99z"/><path fill="#FFFFFF" stroke="#201400" stroke-width="2.02" stroke-linecap="round" stroke-linejoin="round" d="M40.99 54.48c0 0-14.11-0.33-21.83 4.7"/><path fill="#FFFFFF" stroke="#201400" stroke-width="1.05" stroke-linecap="round" stroke-linejoin="round" d="M19.83 70.6c0 0 4.37 3.69 1.68 8.4 3.36-0.67 5.71 0.34 6.38 3.7"/><path fill="none" d="M93.72 134.09c0 0 4.03-9.74 13.44-4.7"/><path fill="#201400" d="M94.37 134.47c2.21-5.21 7.36-6.96 12.4-4.43 0.87 0.44 1.64-0.87 0.76-1.3 -5.69-2.86-11.9-1.07-14.47 4.97C92.69 134.59 94 135.36 94.37 134.47L94.37 134.47z"/><path fill="none" d="M101.11 118.64c0 0 13.1-1.68 19.15 3.36"/><path fill="#201400" d="M101.11 119.39c6.13-0.75 13.68-0.62 18.77 3.26 0.78 0.59 1.53-0.72 0.76-1.3 -5.27-4.03-13.18-4.24-19.53-3.46C100.16 118 100.15 119.51 101.11 119.39L101.11 119.39z"/><path fill="none" d="M116.9 119.64c0 0 2.02-2.01 4.03-0.67"/><path fill="#201400" d="M117.44 120.18c0.85-0.83 2.06-1.19 3.11-0.55 0.84 0.51 1.6-0.8 0.76-1.3 -1.64-0.99-3.62-0.51-4.94 0.79C115.67 119.79 116.74 120.86 117.44 120.18L117.44 120.18z"/></svg>